<?xml version="1.0" standalone="no"?>
<!DOCTYPE svg PUBLIC "-//W3C//DTD SVG 1.1//EN" "http://www.w3.org/Graphics/SVG/1.1/DTD/svg11.dtd" >
<svg xmlns="http://www.w3.org/2000/svg" xmlns:xlink="http://www.w3.org/1999/xlink" version="1.1">
<metadata></metadata>
<defs>
<font id="galyon_boldbold" horiz-adv-x="1605" >
<font-face units-per-em="2048" ascent="1638" descent="-410" />
<missing-glyph horiz-adv-x="475" />
<glyph unicode="&#xfb01;" horiz-adv-x="1343" d="M31 768v260h147v80q0 181 115.5 288t302.5 107q93 0 186 -35l-59 -258q-62 13 -82 13q-61 0 -99 -35t-38 -94v-66h704v-1028h-327v768h-377v-768h-326v768h-147zM854 1331q0 77 55.5 132t134.5 55t134 -55t55 -132t-55 -129.5t-134 -52.5q-80 0 -135 52t-55 130z" />
<glyph unicode="&#xfb02;" horiz-adv-x="1337" d="M31 768v260h147v80q0 252 218 356q81 39 196 39q105 0 203 -43l-70 -254q-51 17 -88 17q-60 0 -96.5 -35t-36.5 -94v-66h282v-260h-282v-768h-326v768h-147zM891 0v1475h328v-1475h-328z" />
<glyph horiz-adv-x="0" />
<glyph horiz-adv-x="682" />
<glyph unicode=" "  horiz-adv-x="475" />
<glyph unicode="&#x09;" horiz-adv-x="475" />
<glyph unicode="&#xa0;" horiz-adv-x="475" />
<glyph unicode="!" horiz-adv-x="608" d="M121 170q0 75 55.5 128.5t132.5 53.5q76 0 131.5 -53.5t55.5 -128.5q0 -76 -54.5 -128t-132.5 -52q-79 0 -133.5 51.5t-54.5 128.5zM123 1309v63h364v-63l-20 -840h-324z" />
<glyph unicode="&#x22;" horiz-adv-x="917" d="M96 727v645h310v-645h-310zM512 727v645h309v-645h-309z" />
<glyph unicode="#" horiz-adv-x="1456" d="M37 299l67 252h203l60 240h-207l65 251h203l82 330h270l-82 -330h240l82 330h270l-82 -330h209l-69 -251h-201l-60 -240h209l-69 -252h-203l-74 -299h-270l74 299h-238l-74 -299h-270l74 299h-209zM578 551h237l59 240h-237z" />
<glyph unicode="$" horiz-adv-x="1243" d="M76 436l319 62q13 -102 79.5 -159.5t172.5 -57.5q76 0 132.5 34.5t56.5 96.5q0 85 -117 112l-260 58q-73 16 -154 52q-88 40 -143.5 120t-55.5 192q0 205 173 324q83 59 215 80v227h272v-234q231 -48 335 -232q39 -68 50 -167l-311 -53q-8 99 -66.5 155t-159.5 56 q-69 0 -119.5 -35t-50.5 -94q0 -84 101 -107l264 -59q352 -79 352 -375q0 -210 -180 -329q-86 -57 -215 -78v-230h-272v236q-127 28 -224.5 95t-149.5 165q-37 69 -44 145z" />
<glyph unicode="%" horiz-adv-x="1771" d="M82 1059q0 152 101 248t255 96q152 0 253.5 -96.5t101.5 -247.5q0 -193 -167 -293q-80 -49 -188 -49q-153 0 -254.5 95.5t-101.5 246.5zM289 0l991 1372h193l-994 -1372h-190zM303 1061q0 -60 38.5 -100.5t96.5 -40.5q55 0 94 41t39 100q0 57 -39 98t-94 41 q-56 0 -95.5 -40.5t-39.5 -98.5zM979 311q0 152 101 248t255 96q152 0 253.5 -96.5t101.5 -247.5q0 -193 -167 -293q-80 -49 -188 -49q-153 0 -254.5 95.5t-101.5 246.5zM1200 313q0 -60 38.5 -100.5t96.5 -40.5q55 0 94 41t39 100q0 57 -39 98.5t-94 41.5q-56 0 -95.5 -41 t-39.5 -99z" />
<glyph unicode="&#x26;" horiz-adv-x="1429" d="M82 399q0 119 64.5 207t166.5 144q-96 128 -96 270q0 115 63 203.5t166 134t226 45.5q196 0 312 -103t144 -286l-303 -53q-15 180 -153 180q-61 0 -100.5 -35t-39.5 -94q0 -57 34 -107q34 -51 120 -129l291 -252q12 53 12 119v92h297v-92q0 -186 -67 -330l184 -159 l-191 -211l-174 153q-79 -58 -185 -92.5t-224 -34.5q-174 0 -309 64.5t-193 181.5q-45 90 -45 184zM403 412q0 -84 69 -131.5t169 -47.5q92 0 178 54l-317 276q-99 -62 -99 -151z" />
<glyph unicode="'" horiz-adv-x="499" d="M96 727v645h310v-645h-310z" />
<glyph unicode="(" horiz-adv-x="778" d="M72 688q0 481 403 856l225 -203q-148 -160 -215 -312t-67 -341q0 -121 23 -212t74 -188q60 -113 192 -253l-232 -203q-403 375 -403 856z" />
<glyph unicode=")" horiz-adv-x="778" d="M72 35q150 159 219 312t69 341q0 191 -68 340q-69 152 -214 313l223 203q406 -373 406 -856t-406 -856z" />
<glyph unicode="*" horiz-adv-x="915" d="M68 977l208 121l-208 119l90 157l200 -114v215h199v-215l201 114l90 -157l-209 -119l209 -121l-90 -158l-201 115v-217h-199v217l-200 -115z" />
<glyph unicode="+" horiz-adv-x="1173" d="M102 487v269h351v356h268v-356h350v-269h-350v-356h-268v356h-351z" />
<glyph unicode="," horiz-adv-x="540" d="M6 -270l121 589h362v-8l-235 -581h-248z" />
<glyph unicode="-" horiz-adv-x="923" d="M123 399v277h678v-277h-678z" />
<glyph unicode="." horiz-adv-x="503" d="M66 174q0 75 55 129.5t131 54.5t132 -54.5t56 -129.5q0 -78 -54.5 -131t-133.5 -53t-132.5 53t-53.5 131z" />
<glyph unicode="/" horiz-adv-x="890" d="M31 -147l590 1665h239l-590 -1665h-239z" />
<glyph unicode="0" horiz-adv-x="1359" d="M76 686q0 241 94.5 414.5t264.5 251.5q111 51 245 51q140 0 251 -53.5t187 -144.5q78 -93 123 -227t45 -292q0 -240 -95.5 -414.5t-264.5 -251.5q-112 -51 -246 -51q-269 0 -437 198q-78 92 -122.5 226t-44.5 293zM416 686q0 -82 15 -155t45.5 -133.5t82.5 -96t121 -35.5 t121.5 35.5t83 96t46 133.5t15.5 155q0 64 -9.5 124t-30 114t-51 94.5t-75.5 64t-100 23.5q-68 0 -120.5 -35.5t-83 -96.5t-45.5 -133.5t-15 -154.5z" />
<glyph unicode="1" horiz-adv-x="796" d="M4 815v303l442 254h213v-1372h-327v983z" />
<glyph unicode="2" horiz-adv-x="1122" d="M37 958q9 158 91 263.5t218 150.5q95 31 199 31q215 0 355 -121t140 -324q0 -100 -49 -201q-50 -104 -239 -282l-197 -180h500v-295h-996v221l473 445q84 78 118 118q67 81 67 172q0 72 -48.5 118t-121.5 46q-148 0 -187 -162h-323z" />
<glyph unicode="3" horiz-adv-x="1181" d="M66 403l333 -2q21 -69 72 -110t127 -41q83 0 140 45t57 121q0 71 -52 107t-135 36h-184v268h170q81 0 132.5 35.5t51.5 104.5q0 72 -51.5 114.5t-130.5 42.5q-80 0 -128 -43.5t-67 -117.5h-319q22 199 159 319.5t353 120.5q136 0 247.5 -52t177.5 -151.5t66 -228.5 q0 -95 -40 -166.5t-107 -110.5q77 -39 123.5 -111t46.5 -171q0 -170 -119 -295q-64 -67 -168.5 -107.5t-224.5 -40.5q-167 0 -289.5 69t-186.5 187q-44 83 -54 178z" />
<glyph unicode="4" horiz-adv-x="1282" d="M37 252v303q53 98 135.5 218t162.5 221.5t152.5 189.5t116.5 138l45 50h418v-850h166v-270h-166v-252h-317v252h-713zM379 522h371v525q-10 -11 -28 -31t-68.5 -81t-95 -121t-96 -141t-83.5 -151z" />
<glyph unicode="5" horiz-adv-x="1179" d="M61 440h326q15 -82 71 -133t140 -51q86 0 141.5 52.5t55.5 135.5q0 76 -55 123q-47 40 -142 47q-45 3 -97 -7t-78 -33l-296 -1l25 799h901v-293h-607l-8 -209q13 3 34.5 7.5t72.5 10.5t84 3q138 -10 201 -32q132 -46 207 -148.5t75 -261.5q0 -168 -84 -281.5t-224 -163.5 q-99 -35 -212 -35q-174 0 -300 72.5t-186 198.5q-44 90 -45 200z" />
<glyph unicode="6" horiz-adv-x="1251" d="M76 662q0 544 365 698q101 43 221 43q188 0 315.5 -90.5t169.5 -245.5l-351 2q-38 53 -147 53q-95 0 -168 -78q-92 -101 -92 -278q53 54 135 89.5t174 35.5q165 0 279 -73t165 -200q34 -83 34 -182q0 -176 -122 -311q-64 -71 -169.5 -113.5t-227.5 -42.5 q-212 0 -347 108.5t-193 292.5q-41 132 -41 292zM449 442q0 -81 58.5 -138.5t141.5 -57.5t144 58t61 142q0 82 -60 140.5t-145 58.5t-142.5 -59t-57.5 -144z" />
<glyph unicode="7" horiz-adv-x="1050" d="M27 1077v295h983v-244l-449 -1128h-362l446 1077h-618z" />
<glyph unicode="8" horiz-adv-x="1173" d="M47 375q0 120 70 203t180 124q-92 43 -147.5 123t-55.5 193q0 119 70 208t181 133t243 44t242.5 -44t180.5 -133t70 -208q0 -112 -56.5 -192.5t-147.5 -123.5q109 -42 178 -124.5t69 -202.5q0 -155 -123 -271q-66 -62 -177.5 -98.5t-235.5 -36.5q-178 0 -310 63.5 t-192 180.5q-39 77 -39 162zM399 399q0 -74 53.5 -118.5t133.5 -44.5q81 0 135.5 46t54.5 121q0 74 -55 119t-135 45q-82 0 -134.5 -45.5t-52.5 -122.5zM408 989q0 -70 52 -114t126 -44q77 0 129.5 44.5t52.5 115.5q0 72 -53 115t-129 43t-127 -44t-51 -116z" />
<glyph unicode="9" horiz-adv-x="1251" d="M76 936q0 176 122 311q64 71 169 113.5t227 42.5q212 0 347.5 -108.5t193.5 -292.5q41 -132 41 -291q0 -264 -92 -443t-274 -256q-101 -43 -220 -43q-188 0 -316 90.5t-170 245.5l350 -2q46 -53 148 -53q95 0 168 78q87 98 92 278q-53 -54 -135 -89.5t-174 -35.5 q-165 0 -278.5 73t-164.5 200q-34 83 -34 182zM395 926q0 -83 60.5 -141t146.5 -58q85 0 143 59.5t58 143.5q0 81 -59 138.5t-142 57.5t-145 -58.5t-62 -141.5z" />
<glyph unicode=":" horiz-adv-x="503" d="M66 174q0 75 55 129.5t131 54.5t132 -54.5t56 -129.5q0 -78 -54.5 -131t-133.5 -53t-132.5 53t-53.5 131zM66 831q0 75 55 130t131 55t132 -55t56 -130q0 -78 -54.5 -131t-133.5 -53t-132.5 53t-53.5 131z" />
<glyph unicode=";" horiz-adv-x="573" d="M6 -270l121 589h362v-8l-235 -581h-248zM133 831q0 77 55 131t134 54q76 0 131 -55t55 -130q0 -78 -53.5 -131t-132.5 -53q-82 0 -135.5 52.5t-53.5 131.5z" />
<glyph unicode="&#x3c;" horiz-adv-x="956" d="M66 510v317l813 293v-315l-467 -133l467 -140v-311z" />
<glyph unicode="=" horiz-adv-x="1173" d="M102 313v260h969v-260h-969zM102 719v260h969v-260h-969z" />
<glyph unicode="&#x3e;" horiz-adv-x="956" d="M82 221v311l467 140l-467 133v315l813 -293v-317z" />
<glyph unicode="?" horiz-adv-x="1112" d="M55 987q17 141 104.5 239t219.5 144q94 33 205 33q165 0 280.5 -71t167.5 -195q35 -84 35 -176q0 -81 -28.5 -148.5t-79.5 -114.5t-115.5 -77.5t-141.5 -45.5v-102h-311v166q0 46 17 80t41 49.5t48 24t41 9.5l17 1q80 0 134 39t54 108q0 72 -48.5 119t-121.5 47 q-65 0 -112.5 -36t-70.5 -93h-335zM354 170q0 75 56 128.5t133 53.5q76 0 131 -53.5t55 -128.5q0 -76 -54 -128t-132 -52q-79 0 -134 51.5t-55 128.5z" />
<glyph unicode="@" horiz-adv-x="1916" d="M96 553q0 187 69.5 343t183.5 265q115 110 275 176t351 66q240 0 436.5 -106t296.5 -272q57 -95 85 -187t28 -205q0 -160 -54.5 -279t-157.5 -178q-79 -45 -186 -45q-86 0 -151.5 33.5t-95.5 91.5q-99 -121 -279 -121q-138 0 -235 68.5t-140 179.5q-30 78 -30 172 q0 170 99 289q49 58 129.5 96.5t176.5 38.5q152 0 250 -94v76h227v-570q0 -42 29.5 -68t73.5 -26q43 0 76.5 32t52 82.5t28 105.5t9.5 108q0 139 -53 252t-142 192q-88 78 -209.5 124t-263.5 46q-152 0 -279.5 -53.5t-219.5 -141.5q-92 -89 -147 -213t-55 -274 q0 -148 54.5 -271.5t144.5 -209.5t216 -138.5t274 -52.5q271 0 491 170l92 -145q-106 -86 -258.5 -139.5t-320.5 -53.5q-189 0 -348 64t-273 172q-113 108 -181.5 261.5t-68.5 338.5zM756 557q0 -86 55 -147.5t139 -61.5q86 0 141.5 61t55.5 148t-55.5 147t-141.5 60 q-85 0 -139.5 -60.5t-54.5 -146.5z" />
<glyph unicode="A" horiz-adv-x="1492" d="M0 0l573 1372h347l573 -1372h-360l-97 250h-577l-97 -250h-362zM573 541h351l-176 450z" />
<glyph unicode="B" horiz-adv-x="1355" d="M119 0v1372h710q183 0 299.5 -101.5t116.5 -273.5q0 -156 -110 -238q-61 -44 -115 -50v-9q78 -7 144.5 -56t91.5 -115q28 -73 28 -144q0 -184 -124 -284.5t-329 -100.5h-712zM457 272h315q77 0 122.5 40.5t45.5 113.5q0 66 -46 106.5t-116 40.5h-321v-301zM457 805h295 q72 0 119 42t47 111q0 62 -44.5 102t-109.5 40h-307v-295z" />
<glyph unicode="C" horiz-adv-x="1564" d="M72 686q0 154 59 284t154 224q96 94 228 151.5t288 57.5q257 0 448 -143q193 -145 242 -383h-360q-34 72 -38 77q-45 64 -120.5 102t-171.5 38q-131 0 -223.5 -69.5t-137.5 -178.5q-30 -76 -30 -160q0 -135 67 -234.5t172 -144.5q74 -31 152 -31q126 0 213.5 64.5 t126.5 173.5h352q-35 -191 -151.5 -321.5t-294.5 -186.5q-115 -37 -246 -37q-157 0 -289 57t-227 150t-154 224.5t-59 285.5z" />
<glyph unicode="D" horiz-adv-x="1484" d="M119 0v1372h543q257 0 437.5 -109.5t260.5 -299.5q53 -129 53 -277q0 -306 -207 -496q-208 -190 -544 -190h-543zM457 293h192q187 0 305.5 106.5t118.5 286.5t-118.5 286.5t-305.5 106.5h-192v-786z" />
<glyph unicode="E" horiz-adv-x="1280" d="M119 0v1372h1063v-291h-725v-258h665v-274h-665v-258h731v-291h-1069z" />
<glyph unicode="F" horiz-adv-x="1224" d="M119 0v1372h1061v-297h-723v-289h643v-294h-643v-492h-338z" />
<glyph unicode="G" horiz-adv-x="1593" d="M72 686q0 154 59 284t154 224q96 94 229.5 151.5t290.5 57.5q232 0 417 -109q184 -109 253 -303h-393q-101 103 -277 103q-166 0 -279.5 -119.5t-113.5 -288.5q0 -129 59.5 -221t159.5 -146q79 -43 184 -43q134 0 229.5 68t133.5 178h-420v287h755q9 -79 9 -125 q0 -158 -54.5 -289t-146.5 -223q-93 -93 -222.5 -148t-287.5 -55q-160 0 -294.5 56.5t-230.5 150.5q-97 94 -155.5 224t-58.5 286z" />
<glyph unicode="H" horiz-adv-x="1490" d="M119 0v1372h338v-534h577v534h336v-1372h-336v543h-577v-543h-338z" />
<glyph unicode="I" horiz-adv-x="575" d="M119 0v1372h338v-1372h-338z" />
<glyph unicode="J" horiz-adv-x="1245" d="M29 430h339q21 -74 74.5 -117t135.5 -43q96 0 155.5 63t59.5 161v878h337v-878q0 -182 -89.5 -306t-238.5 -180q-104 -39 -224 -39q-227 0 -372.5 126.5t-176.5 334.5z" />
<glyph unicode="K" horiz-adv-x="1462" d="M119 0v1372h338v-678l571 678h383l-493 -588l550 -784h-409l-361 524l-241 -288v-236h-338z" />
<glyph unicode="L" horiz-adv-x="1202" d="M119 0v1372h338v-1077h676v-295h-1014z" />
<glyph unicode="M" horiz-adv-x="1820" d="M119 0v1372h332l460 -870l461 870h330v-1372h-328v731l-385 -731h-155l-388 735v-735h-327z" />
<glyph unicode="N" horiz-adv-x="1550" d="M119 0v1372h280l695 -819v819h336v-1372h-279l-694 795v-795h-338z" />
<glyph unicode="O" d="M72 684q0 154 59 284t154 225q96 95 228.5 152.5t289.5 57.5t289.5 -57.5t228.5 -152.5q95 -95 154 -225t59 -284t-58.5 -283t-154.5 -223q-97 -94 -229 -151.5t-289 -57.5t-289 57.5t-229 151.5q-96 93 -154.5 222.5t-58.5 283.5zM410 684q0 -136 65.5 -233t172.5 -142 q72 -30 155 -30q133 0 227 68t136 177q30 76 30 160q0 131 -63.5 231t-166.5 144q-82 35 -163 35q-126 0 -222 -67.5t-138 -171.5q-33 -82 -33 -171z" />
<glyph unicode="P" horiz-adv-x="1359" d="M119 0v1372h676q175 0 296 -75t173 -206q34 -86 34 -192q0 -220 -143.5 -349.5t-374.5 -129.5h-323v-420h-338zM457 702h299q93 0 152 52.5t59 140.5q0 85 -59.5 136.5t-151.5 51.5h-299v-381z" />
<glyph unicode="Q" d="M72 684q0 154 59 284t154 225q96 95 228.5 152.5t289.5 57.5t289.5 -57.5t228.5 -152.5q95 -95 154 -225t59 -284q0 -179 -77.5 -323.5t-201.5 -241.5l357 -467h-443l-243 328q-69 -11 -123 -11q-157 0 -289 57.5t-229 151.5q-96 93 -154.5 222.5t-58.5 283.5zM410 684 q0 -136 65.5 -233t172.5 -142q72 -30 155 -30q133 0 227 68t136 177q30 76 30 160q0 131 -63.5 231t-166.5 144q-82 35 -163 35q-126 0 -222 -67.5t-138 -171.5q-33 -82 -33 -171z" />
<glyph unicode="R" horiz-adv-x="1390" d="M119 0v1372h694q216 0 355 -122t139 -326q0 -173 -100.5 -287.5t-260.5 -149.5l430 -487h-407l-414 471h-98v-471h-338zM457 754h319q86 0 142.5 44.5t56.5 121.5q0 76 -57 119.5t-142 43.5h-319v-329z" />
<glyph unicode="S" horiz-adv-x="1323" d="M76 385h373q31 -65 94 -100t151 -35q85 0 144 36t59 105q0 55 -32.5 82t-94.5 39l-287 61q-368 84 -368 398q0 136 75 236t196 148t271 48q225 0 377 -106t191 -291h-356q-28 55 -86 89.5t-130 34.5q-75 0 -129.5 -37.5t-54.5 -101.5q0 -50 28.5 -76.5t82.5 -37.5 l284 -64q377 -85 377 -399q0 -166 -96.5 -269t-251.5 -147q-104 -29 -217 -29q-183 0 -322 63.5t-213 177.5q-50 78 -65 175z" />
<glyph unicode="T" horiz-adv-x="1306" d="M41 1077v295h1225v-295h-445v-1077h-336v1077h-444z" />
<glyph unicode="U" horiz-adv-x="1460" d="M115 618v754h338v-754q0 -149 75 -243t209 -94q128 0 199.5 95.5t71.5 241.5v754h338v-754q0 -223 -97 -379t-265 -224q-113 -46 -247 -46q-218 0 -364.5 104t-212.5 281q-45 121 -45 264z" />
<glyph unicode="V" horiz-adv-x="1521" d="M14 1372h373l373 -909l375 909h372l-583 -1372h-326z" />
<glyph unicode="W" horiz-adv-x="1992" d="M14 1372h346l240 -864l236 864h321l236 -864l239 864h348l-391 -1372h-362l-230 848l-231 -848h-360z" />
<glyph unicode="X" horiz-adv-x="1398" d="M14 0l430 688l-426 684h400l280 -463l283 463h399l-426 -684l430 -688h-399l-287 467l-284 -467h-400z" />
<glyph unicode="Y" horiz-adv-x="1445" d="M14 1372h369l338 -602l334 602h377l-543 -942v-430h-344v426z" />
<glyph unicode="Z" horiz-adv-x="1300" d="M84 0v217l692 870h-672v285h1102v-258l-641 -829h658v-285h-1139z" />
<glyph unicode="[" horiz-adv-x="839" d="M119 -168v1686h645v-269h-340v-1149h340v-268h-645z" />
<glyph unicode="\" horiz-adv-x="890" d="M31 1518h239l590 -1665h-239z" />
<glyph unicode="]" horiz-adv-x="839" d="M76 100h340v1149h-340v269h645v-1686h-645v268z" />
<glyph unicode="^" horiz-adv-x="950" d="M35 862l319 510h242l319 -510h-278l-162 258l-162 -258h-278z" />
<glyph unicode="_" horiz-adv-x="1105" d="M41 -115h1024v-243h-1024v243z" />
<glyph unicode="`" horiz-adv-x="1228" d="M266 1473h389l146 -312h-291z" />
<glyph unicode="a" horiz-adv-x="1138" d="M47 305q0 162 119.5 247t308.5 85h262v20q0 63 -41 103.5t-104 40.5q-109 0 -149 -66h-332q42 187 235 278q98 46 236 46q164 0 276.5 -60.5t161.5 -174.5q33 -76 33 -173v-651h-316v76q-125 -107 -307 -107q-167 0 -275 90.5t-108 245.5zM379 322q0 -50 42 -78.5 t101 -28.5q114 0 181 86q34 43 34 105v22h-225q-56 0 -94.5 -28.5t-38.5 -77.5z" />
<glyph unicode="b" horiz-adv-x="1318" d="M119 0v1475h327v-529q125 113 320 113q237 0 393 -200q49 -63 79 -155t30 -190q0 -119 -41 -221t-108 -173q-144 -151 -353 -151q-195 0 -320 113v-82h-327zM446 514q0 -112 73 -189t179 -77q110 0 179 75t69 191q0 113 -68.5 189.5t-179.5 76.5q-106 0 -179 -78 t-73 -188z" />
<glyph unicode="c" horiz-adv-x="1187" d="M51 514q0 139 57 247.5t149 179.5q153 118 355 118q187 0 335 -109q147 -108 190 -286h-333q-27 48 -77.5 78t-114.5 30q-108 0 -176.5 -72.5t-68.5 -185.5q0 -111 67.5 -184.5t177.5 -73.5q132 0 196 115h329q-27 -125 -107.5 -218t-192.5 -140q-106 -44 -225 -44 q-233 0 -395 151q-75 70 -120.5 171t-45.5 223z" />
<glyph unicode="d" horiz-adv-x="1318" d="M51 514q0 238 158 401q60 62 151 103t193 41q194 0 319 -113v529h328v-1475h-328v82q-125 -113 -319 -113q-209 0 -353 151q-67 71 -108 173t-41 221zM373 514q0 -114 68 -190t180 -76q106 0 178.5 77t72.5 189q0 110 -72.5 188t-178.5 78q-111 0 -179.5 -76.5 t-68.5 -189.5z" />
<glyph unicode="e" horiz-adv-x="1177" d="M51 514q0 185 93 315t243 190q99 40 209 40q178 0 302.5 -89t183.5 -233q43 -103 44 -223v-84h-753q19 -85 76.5 -142t144.5 -57q153 0 219 119l291 -59q-63 -151 -190 -236.5t-320 -85.5q-225 0 -383 151q-73 70 -116.5 171t-43.5 223zM379 631h424q-21 72 -75 117 t-132 45q-77 0 -137 -47t-80 -115z" />
<glyph unicode="f" horiz-adv-x="772" d="M31 768v260h147v80q0 252 218 356q81 39 196 39q105 0 203 -43l-70 -254q-51 17 -88 17q-60 0 -96.5 -35t-36.5 -94v-66h282v-260h-282v-768h-326v768h-147z" />
<glyph unicode="g" horiz-adv-x="1298" d="M51 563q0 165 86 284.5t221 174.5q89 37 189 37q196 0 309 -98v67h322v-926q0 -181 -94 -295t-253 -163q-107 -33 -229 -33q-179 0 -311.5 65t-204.5 183l272 147q61 -70 112 -98q53 -29 130 -29q115 0 185.5 68t70.5 182v29q-114 -99 -309 -99q-199 0 -348 145 q-67 65 -107.5 157t-40.5 202zM371 563q0 -103 69 -169t176 -66q102 0 171 68t69 167t-70 166.5t-170 67.5q-106 0 -175.5 -66t-69.5 -168z" />
<glyph unicode="h" horiz-adv-x="1267" d="M119 0v1475h327v-545q124 129 318 129q181 0 289 -119.5t108 -308.5v-631h-325v561q0 87 -49.5 145t-129.5 58q-108 0 -159.5 -77.5t-51.5 -209.5v-477h-327z" />
<glyph unicode="i" horiz-adv-x="598" d="M111 1331q0 77 54.5 132t133.5 55t134.5 -54t55.5 -133q0 -78 -55 -130t-135 -52t-134 51t-54 131zM135 0v1028h328v-1028h-328z" />
<glyph unicode="j" horiz-adv-x="620" d="M-55 -326l49 258q51 -16 82 -16q37 0 61.5 23t24.5 59v1030h325v-1067q0 -148 -90 -239t-237 -91q-110 0 -215 43zM133 1331q0 77 55 132t134 55t134.5 -54t55.5 -133q0 -78 -55 -130t-135 -52t-134.5 51t-54.5 131z" />
<glyph unicode="k" horiz-adv-x="1273" d="M119 0v1475h327v-859l371 412h383l-379 -430l459 -598h-403l-275 350l-156 -176v-174h-327z" />
<glyph unicode="l" horiz-adv-x="565" d="M119 0v1475h327v-1475h-327z" />
<glyph unicode="m" horiz-adv-x="1947" d="M119 0v1028h327v-94q113 125 304 125q111 0 198.5 -48t136.5 -126q135 174 365 174q133 0 227.5 -69t136.5 -179q29 -75 29 -168v-643h-325v573q0 80 -48.5 135.5t-123.5 55.5q-100 0 -150.5 -73.5t-50.5 -186.5v-504h-328v573q0 81 -49 136t-125 55q-98 0 -147.5 -72 t-49.5 -188v-504h-327z" />
<glyph unicode="n" horiz-adv-x="1265" d="M119 0v1028h327v-98q55 59 136.5 94t179.5 35q140 0 235 -69.5t136 -184.5q28 -78 28 -174v-631h-325v561q0 85 -48 144t-129 59q-110 0 -161.5 -77.5t-51.5 -209.5v-477h-327z" />
<glyph unicode="o" horiz-adv-x="1234" d="M51 514q0 235 167 390q75 69 178.5 110t224.5 41q177 0 314 -86.5t199 -225.5q50 -114 50 -229q0 -186 -97 -315.5t-251 -188.5q-102 -39 -215 -39q-207 0 -372 125q-88 66 -143 177t-55 241zM367 514q0 -113 73 -189.5t181 -76.5q104 0 175.5 77.5t71.5 188.5 q0 108 -72 187t-175 79q-109 0 -181.5 -76.5t-72.5 -189.5z" />
<glyph unicode="p" horiz-adv-x="1318" d="M119 -348v1376h327v-82q125 113 320 113q237 0 393 -200q49 -63 79 -155t30 -190q0 -119 -41 -221t-108 -173q-144 -151 -353 -151q-195 0 -320 113v-430h-327zM446 514q0 -112 73 -189t179 -77q110 0 179 75t69 191q0 113 -68.5 189.5t-179.5 76.5q-106 0 -179 -78 t-73 -188z" />
<glyph unicode="q" horiz-adv-x="1318" d="M51 514q0 238 158 401q60 62 151 103t193 41q194 0 319 -113v82h328v-1376h-328v430q-125 -113 -319 -113q-209 0 -353 151q-67 71 -108 173t-41 221zM373 514q0 -114 68 -190t180 -76q106 0 178.5 77t72.5 189q0 110 -72.5 188t-178.5 78q-111 0 -179.5 -76.5 t-68.5 -189.5z" />
<glyph unicode="r" horiz-adv-x="894" d="M119 0v1028h327v-197q131 211 355 211q38 0 73 -8l-14 -327h-59q-355 0 -355 -385v-322h-327z" />
<glyph unicode="s" horiz-adv-x="1054" d="M49 268l351 -2q39 -53 151 -53q54 0 93.5 21t39.5 61q0 58 -102 76l-209 41q-134 25 -216.5 99t-82.5 200q0 109 61.5 189.5t160.5 119.5t220 39q182 0 308.5 -78t158.5 -217l-328 2q-51 59 -143 59q-51 0 -84 -20.5t-33 -59.5q0 -55 78 -71l242 -49q128 -26 206 -104.5 t78 -205.5q0 -88 -38 -156t-103.5 -108.5t-148 -61t-177.5 -20.5q-130 0 -229.5 30.5t-168 98.5t-85.5 170z" />
<glyph unicode="t" horiz-adv-x="886" d="M4 768v260h186v303h328v-303h303v-260h-303v-356q0 -150 137 -150q34 0 77.5 13t72.5 28l76 -258q-140 -76 -281 -76q-196 0 -303 107t-107 303v389h-186z" />
<glyph unicode="u" horiz-adv-x="1265" d="M104 397v631h326v-561q0 -85 47.5 -144t128.5 -59q110 0 161.5 77.5t51.5 209.5v477h328v-1028h-328v98q-55 -59 -136 -94t-179 -35q-140 0 -235 69.5t-136 184.5q-29 81 -29 174z" />
<glyph unicode="v" horiz-adv-x="1214" d="M14 1030h346l248 -635l246 635h346l-426 -1030h-334z" />
<glyph unicode="w" horiz-adv-x="1628" d="M14 1028h322l168 -553l194 553h232l194 -555l168 555h322l-330 -1030h-285l-184 557l-186 -557h-285z" />
<glyph unicode="x" horiz-adv-x="1236" d="M45 0l338 498l-338 532h375l198 -319l197 319h377l-340 -532l340 -498h-377l-197 297l-198 -297h-375z" />
<glyph unicode="y" horiz-adv-x="1236" d="M14 1030h353l243 -600l260 600h353l-594 -1378h-355l166 383z" />
<glyph unicode="z" horiz-adv-x="1101" d="M76 0v211l516 557h-504v260h920v-215l-516 -553h534v-260h-950z" />
<glyph unicode="{" horiz-adv-x="862" d="M41 553v242l70 20q77 24 100 53q22 28 22 66v315q0 119 79.5 194t201.5 75h272v-267h-194q-24 0 -38.5 -17t-14.5 -42v-301q0 -78 -34.5 -135.5t-92.5 -81.5q58 -24 92.5 -81.5t34.5 -135.5v-301q0 -25 14.5 -42.5t38.5 -17.5h194v-264h-272q-123 0 -202 73.5t-79 192.5 v316q0 37 -22 65q-23 29 -100 53z" />
<glyph unicode="|" horiz-adv-x="542" d="M119 -147v1665h305v-1665h-305z" />
<glyph unicode="}" horiz-adv-x="862" d="M76 96h192q24 0 40 17.5t16 42.5v301q0 78 34.5 135.5t92.5 81.5q-58 24 -92.5 81.5t-34.5 135.5v301q0 25 -16 42t-40 17h-192v267h272q122 0 200.5 -75t78.5 -194v-315q0 -39 23 -66q25 -29 102 -53l69 -20v-242l-69 -21q-77 -24 -102 -53q-23 -27 -23 -65v-316 q0 -119 -78.5 -192.5t-200.5 -73.5h-272v264z" />
<glyph unicode="~" horiz-adv-x="1038" d="M88 465q0 109 40.5 192.5t113.5 120.5q58 29 114 29t94 -12.5t94 -41.5q57 -30 87 -30q33 0 52 23t17 57h252q0 -126 -49 -213t-140 -117q-48 -16 -91 -16q-54 0 -94.5 12.5t-92.5 39.5q-54 28 -82 28q-32 0 -52.5 -20t-22.5 -52h-240z" />
<glyph unicode="&#xa1;" horiz-adv-x="608" d="M121 877q0 77 54.5 128.5t133.5 51.5q78 0 132.5 -52t54.5 -128q0 -75 -55.5 -129t-131.5 -54q-77 0 -132.5 54t-55.5 129zM123 -262l20 840h324l20 -840v-64h-364v64z" />
<glyph unicode="&#xa2;" horiz-adv-x="1187" d="M51 514q0 200 121 343t301 185v248h272v-246q144 -35 251 -137t141 -243l-308 -74q-19 83 -74.5 132.5t-142.5 49.5q-108 0 -176.5 -72.5t-68.5 -185.5q0 -111 67.5 -184.5t177.5 -73.5q90 0 145.5 50t78.5 130l301 -65q-30 -143 -138.5 -247.5t-253.5 -139.5v-250h-272 v252q-182 40 -302 181t-120 347z" />
<glyph unicode="&#xa3;" horiz-adv-x="1263" d="M76 0v211l151 45v221h-151v281h151v174q0 85 41 190q25 64 114 151q62 61 156 96q90 34 240 34q90 0 176 -28l-2 -492q-21 215 -174 215q-32 0 -51.5 -1.5t-49.5 -12.5t-55 -32q-20 -17 -30.5 -27.5t-22.5 -36.5t-12 -56v-174h258v-281h-258v-184h649v-293h-1130z" />
<glyph unicode="&#xa5;" horiz-adv-x="1429" d="M35 1372h358l316 -569l311 569h375l-410 -694h250v-211h-358v-88h358v-213h-358v-166h-338v166h-342v213h342v88h-342v211h235z" />
<glyph unicode="&#xa7;" horiz-adv-x="1126" d="M41 592q0 183 168 285q-53 77 -53 182q0 120 60 198t163 116q80 30 188 30q186 0 304 -96t128 -263l-278 -49q-4 75 -38.5 119.5t-100.5 44.5q-49 0 -84 -29.5t-35 -76.5q0 -41 26 -66t72 -45l254 -100q122 -46 189 -121.5t67 -202.5q0 -99 -46.5 -171.5t-121.5 -115.5 q53 -77 53 -182q0 -206 -188 -296q-93 -44 -223 -44q-195 0 -317 97t-126 272l275 51q15 -178 153 -178q49 0 84 29.5t35 76.5q0 41 -26 66t-72 45l-254 100q-59 23 -102.5 50t-79.5 65t-55 90.5t-19 118.5zM328 623q0 -28 16 -57t82 -62q22 -9 125 -53.5t158 -69.5 q75 44 75 106q0 73 -98 119l-260 115l-25 10q-73 -40 -73 -108z" />
<glyph unicode="&#xa8;" horiz-adv-x="1228" d="M199 1317q0 75 52.5 127.5t129.5 52.5q76 0 130 -52t54 -128q0 -75 -53.5 -126.5t-130.5 -51.5t-129.5 51t-52.5 127zM666 1317q0 75 52 127.5t130 52.5q76 0 130 -52t54 -128q0 -75 -53.5 -126.5t-130.5 -51.5t-129.5 51t-52.5 127z" />
<glyph unicode="&#xa9;" horiz-adv-x="1548" d="M51 682q0 158 58.5 290.5t153.5 226.5q93 92 223.5 148t283.5 56t282 -56t223 -148q96 -93 154 -226t58 -291q0 -156 -58.5 -288t-153.5 -223t-224 -146.5t-281 -55.5t-282.5 56t-224.5 146q-95 92 -153.5 223.5t-58.5 287.5zM178 684q0 -131 47.5 -241.5t126.5 -187.5 q77 -76 184 -122.5t234 -46.5q125 0 232 46.5t184 122.5q79 77 126.5 187.5t47.5 241.5q0 132 -47.5 242.5t-126.5 189.5q-77 77 -184 124.5t-232 47.5q-127 0 -233.5 -47t-184.5 -125q-79 -79 -126.5 -189.5t-47.5 -242.5zM387 684q0 125 66 219t169 134q82 32 158 32 q148 0 253 -81.5t118 -209.5l-197 -37q-14 58 -62 96t-114 38q-78 0 -130 -55.5t-52 -135.5t52 -135t130 -55q70 0 118 40t56 105l199 -33q-10 -137 -114.5 -222t-256.5 -85q-129 0 -222.5 63.5t-138.5 165.5q-32 73 -32 156z" />
<glyph unicode="&#xaa;" horiz-adv-x="798" d="M66 889q0 103 85 158t211 55h148v20q2 37 -22.5 60.5t-63.5 23.5q-76 0 -100 -76l-213 44q25 95 104 150.5t199 55.5q150 0 239.5 -71t89.5 -209v-416h-233v39q-76 -57 -191 -57q-108 0 -180.5 60.5t-72.5 162.5zM301 897q0 -33 24 -51.5t62 -18.5q52 0 87.5 29.5 t35.5 77.5v31h-119q-38 0 -64 -18t-26 -50z" />
<glyph unicode="&#xab;" horiz-adv-x="1034" d="M51 537l215 364h307l-215 -364l215 -365h-307zM461 537l215 364h307l-215 -364l215 -365h-307z" />
<glyph unicode="&#xad;" horiz-adv-x="923" d="M123 399v277h678v-277h-678z" />
<glyph unicode="&#xae;" horiz-adv-x="997" d="M88 991q0 132 68 232.5t175 144.5q87 35 167 35q130 0 229.5 -67t143.5 -173q36 -85 36 -172q0 -118 -58.5 -213.5t-148.5 -143.5q-98 -52 -202 -52q-116 0 -211.5 57t-144.5 145q-54 99 -54 207zM178 991q0 -117 79 -214q36 -45 101.5 -77t139.5 -32q133 0 227 94.5 t94 228.5q0 140 -91.5 234t-229.5 94q-188 0 -285 -177q-35 -65 -35 -151zM346 817v373h180q65 0 108.5 -33.5t43.5 -91.5q0 -44 -24.5 -76.5t-61.5 -46.5l104 -125h-110l-94 115h-52v-115h-94zM440 1012h84q26 0 45 14t19 37q0 21 -19.5 34t-44.5 13h-84v-98z" />
<glyph unicode="&#xaf;" horiz-adv-x="1228" d="M274 1167v254h680v-254h-680z" />
<glyph unicode="&#xb0;" horiz-adv-x="876" d="M115 1090q0 175 152 268q75 45 173 45q95 0 169.5 -45t113.5 -114t39 -154q0 -174 -152 -267q-74 -45 -170 -45t-171 44.5t-115 113.5q-39 68 -39 154zM315 1092q0 -54 36.5 -91.5t88.5 -37.5q50 0 85.5 38t35.5 91q0 52 -36 89.5t-85 37.5q-52 0 -88.5 -36.5 t-36.5 -90.5z" />
<glyph unicode="&#xb1;" horiz-adv-x="1173" d="M102 0v266h969v-266h-969zM102 686v266h351v328h268v-328h350v-266h-350v-289h-268v289h-351z" />
<glyph unicode="&#xb4;" horiz-adv-x="1228" d="M408 1161l145 312h389l-244 -312h-290z" />
<glyph unicode="&#xb6;" horiz-adv-x="1241" d="M41 999q0 178 107.5 275.5t291.5 97.5h359v-1372h-228v612h-102q-138 0 -242 59t-149 160q-37 81 -37 168zM895 0v1372h225v-1372h-225z" />
<glyph unicode="&#xb7;" horiz-adv-x="503" d="M66 535q0 75 55 129.5t131 54.5t132 -54.5t56 -129.5q0 -78 -54.5 -131.5t-133.5 -53.5t-132.5 53.5t-53.5 131.5z" />
<glyph unicode="&#xb8;" horiz-adv-x="1228" d="M371 -328l204 328h236l-100 -328h-340z" />
<glyph unicode="&#xba;" horiz-adv-x="864" d="M55 1022q0 137 92 241q45 50 120.5 83.5t162.5 33.5q125 0 215.5 -59t133.5 -155q30 -66 30 -144q0 -219 -209 -321q-71 -35 -170 -35q-115 0 -199.5 51.5t-134.5 137.5q-41 71 -41 167zM289 1022q0 -60 41.5 -105t99.5 -45q61 0 104.5 44.5t43.5 105.5q0 62 -43.5 107 t-104.5 45q-59 0 -100 -45.5t-41 -106.5z" />
<glyph unicode="&#xbb;" horiz-adv-x="1034" d="M51 172l215 365l-215 364h307l215 -364l-215 -365h-307zM461 172l215 365l-215 364h307l215 -364l-215 -365h-307z" />
<glyph unicode="&#xbc;" horiz-adv-x="1536" d="M35 993v228l235 151h148v-784h-223v499zM170 0l991 1372h193l-992 -1372h-192zM782 131v201l348 452h261v-471h98v-182h-98v-131h-207v131h-402zM995 313h189v248z" />
<glyph unicode="&#xbd;" horiz-adv-x="1648" d="M35 993v228l235 151h148v-784h-223v499zM135 0l993 1372h191l-991 -1372h-193zM891 0v141l289 254q59 51 80 78q22 28 22 66q0 35 -24 56t-62 21t-62.5 -23t-32.5 -61h-204q0 124 84 198.5t215 74.5q191 0 270 -137q31 -54 31 -129q0 -57 -32 -119q-31 -62 -138 -150 l-96 -80h262v-190h-602z" />
<glyph unicode="&#xbe;" horiz-adv-x="1689" d="M43 831h205q11 -33 40 -53t68 -20q41 0 69 22t28 58t-28.5 54.5t-70.5 18.5h-86v156h74q41 0 72.5 19.5t31.5 52.5q0 35 -27 55t-67 20q-37 0 -62.5 -17.5t-34.5 -49.5h-208q13 109 96 177.5t207 68.5q122 0 211.5 -67t89.5 -179q0 -101 -94 -152q107 -55 107 -164 q0 -114 -92 -185t-218 -71q-129 0 -216 68.5t-95 187.5zM309 0l994 1372h190l-991 -1372h-193zM936 131v201l348 452h260v-471h98v-182h-98v-131h-207v131h-401zM1149 313h188v248z" />
<glyph unicode="&#xbf;" horiz-adv-x="1112" d="M45 86q0 158 102 256t263 129v102h311v-145q0 -52 -17 -89.5t-41 -55t-48 -27.5t-41 -11l-17 -1q-80 0 -134 -39.5t-54 -108.5q0 -74 47.5 -120t122.5 -46q61 0 108.5 34.5t69.5 88.5l340 6q-17 -141 -104.5 -239t-219.5 -144q-92 -32 -207 -32q-135 0 -244.5 54.5 t-173 156t-63.5 231.5zM381 877q0 76 55 128t133 52t132.5 -52t54.5 -128q0 -75 -54.5 -129t-132.5 -54q-75 0 -131.5 55t-56.5 128z" />
<glyph unicode="&#xc0;" horiz-adv-x="1492" d="M0 0l573 1372h347l573 -1372h-360l-97 250h-577l-97 -250h-362zM362 1817h390l145 -312h-291zM573 541h351l-176 450z" />
<glyph unicode="&#xc1;" horiz-adv-x="1492" d="M0 0l573 1372h347l573 -1372h-360l-97 250h-577l-97 -250h-362zM573 541h351l-176 450zM606 1505l146 312h389l-244 -312h-291z" />
<glyph unicode="&#xc2;" horiz-adv-x="1492" d="M0 0l573 1372h347l573 -1372h-360l-97 250h-577l-97 -250h-362zM350 1493l236 317h325l238 -317h-318l-81 115l-84 -115h-316zM573 541h351l-176 450z" />
<glyph unicode="&#xc3;" horiz-adv-x="1492" d="M0 0l573 1372h347l573 -1372h-360l-97 250h-577l-97 -250h-362zM391 1530q0 194 116 274q53 37 120 37q35 0 63 -6.5t43.5 -14t53.5 -27.5q54 -28 87 -28q53 0 64 74h199q0 -199 -116 -278q-53 -37 -122 -37q-74 0 -132 32q-9 5 -24 13.5t-20.5 11t-15.5 7t-16.5 6 t-16 2.5t-21.5 1q-53 0 -63 -67h-199zM573 541h351l-176 450z" />
<glyph unicode="&#xc4;" horiz-adv-x="1492" d="M0 0l573 1372h347l573 -1372h-360l-97 250h-577l-97 -250h-362zM332 1661q0 75 52 127.5t130 52.5q76 0 130 -52t54 -128q0 -75 -53.5 -126.5t-130.5 -51.5t-129.5 51t-52.5 127zM573 541h351l-176 450zM799 1661q0 75 52.5 127.5t129.5 52.5q76 0 130 -52t54 -128 q0 -75 -53.5 -126.5t-130.5 -51.5t-129.5 51t-52.5 127z" />
<glyph unicode="&#xc5;" horiz-adv-x="1492" d="M0 0l573 1372h347l573 -1372h-360l-97 250h-577l-97 -250h-362zM489 1706q0 106 75.5 179t183.5 73t183 -73t75 -179q0 -104 -75 -177t-183 -73t-183.5 73t-75.5 177zM573 541h351l-176 450zM664 1706q0 -33 25 -56.5t59 -23.5t58.5 23.5t24.5 56.5t-24.5 57.5 t-58.5 24.5t-59 -24.5t-25 -57.5z" />
<glyph unicode="&#xc6;" horiz-adv-x="2142" d="M0 0l879 1372h1177v-291h-725v-258h668v-274h-668v-258h731v-291h-1067v223h-469l-133 -223h-393zM700 514h295v494z" />
<glyph unicode="&#xc7;" horiz-adv-x="1564" d="M72 686q0 154 59 284t154 224q96 94 228 151.5t288 57.5q257 0 448 -143q193 -145 242 -383l-332 -78q-31 136 -120.5 215.5t-237.5 79.5q-131 0 -223.5 -69.5t-137.5 -178.5q-30 -76 -30 -160q0 -135 67 -234.5t172 -144.5q74 -31 152 -31q145 0 236.5 83t123.5 221 l332 -66q-42 -226 -201.5 -371t-396.5 -170l-92 -301h-340l194 312q-126 23 -233.5 87.5t-184.5 154.5q-167 198 -167 460z" />
<glyph unicode="&#xc8;" horiz-adv-x="1280" d="M119 0v1372h1063v-291h-725v-258h665v-274h-665v-258h731v-291h-1069zM287 1817h389l145 -312h-291z" />
<glyph unicode="&#xc9;" horiz-adv-x="1280" d="M119 0v1372h1063v-291h-725v-258h665v-274h-665v-258h731v-291h-1069zM528 1505l146 312h389l-244 -312h-291z" />
<glyph unicode="&#xca;" horiz-adv-x="1280" d="M119 0v1372h1063v-291h-725v-258h665v-274h-665v-258h731v-291h-1069zM274 1493l236 317h326l237 -317h-317l-82 115l-84 -115h-316z" />
<glyph unicode="&#xcb;" horiz-adv-x="1280" d="M119 0v1372h1063v-291h-725v-258h665v-274h-665v-258h731v-291h-1069zM256 1661q0 75 52 127.5t130 52.5q76 0 130.5 -52t54.5 -128q0 -75 -54 -126.5t-131 -51.5t-129.5 51t-52.5 127zM723 1661q0 75 52.5 127.5t129.5 52.5q76 0 130.5 -52t54.5 -128q0 -75 -54 -126.5 t-131 -51.5t-129.5 51t-52.5 127z" />
<glyph unicode="&#xcc;" horiz-adv-x="575" d="M-96 1817h389l145 -312h-291zM119 0v1372h338v-1372h-338z" />
<glyph unicode="&#xcd;" horiz-adv-x="575" d="M119 0v1372h338v-1372h-338zM145 1505l146 312h389l-244 -312h-291z" />
<glyph unicode="&#xce;" horiz-adv-x="575" d="M-111 1493l236 317h326l237 -317h-317l-82 115l-84 -115h-316zM119 0v1372h338v-1372h-338z" />
<glyph unicode="&#xcf;" horiz-adv-x="575" d="M-127 1661q0 75 52.5 127.5t129.5 52.5q76 0 130.5 -52t54.5 -128q0 -75 -54 -126.5t-131 -51.5t-129.5 51t-52.5 127zM119 0v1372h338v-1372h-338zM340 1661q0 75 52 127.5t130 52.5q76 0 130.5 -52t54.5 -128q0 -75 -54 -126.5t-131 -51.5t-129.5 51t-52.5 127z" />
<glyph unicode="&#xd0;" horiz-adv-x="1501" d="M47 539v295h111v538h542q256 0 436.5 -109.5t260.5 -299.5q53 -129 53 -277q0 -305 -206 -496q-96 -89 -235.5 -139.5t-308.5 -50.5h-542v539h-111zM494 293h192q272 0 384 207q42 78 42 186q0 156 -97 265q-50 57 -137.5 92.5t-191.5 35.5h-192v-245h231v-295h-231v-246 z" />
<glyph unicode="&#xd1;" horiz-adv-x="1550" d="M119 0v1372h280l695 -819v819h336v-1372h-279l-694 795v-795h-338zM424 1530q0 194 116 274q53 37 119 37q35 0 63 -6.5t44.5 -14t53.5 -27.5q54 -28 87 -28q53 0 64 74h198q0 -200 -115 -278q-53 -37 -122 -37q-74 0 -132 32q-9 5 -24 13.5t-20.5 11t-15.5 7t-16.5 6 t-16 2.5t-21.5 1q-53 0 -63 -67h-199z" />
<glyph unicode="&#xd2;" d="M72 684q0 154 59 284t154 225q96 95 228.5 152.5t289.5 57.5t289.5 -57.5t228.5 -152.5q95 -95 154 -225t59 -284t-58.5 -283t-154.5 -223q-97 -94 -229 -151.5t-289 -57.5t-289 57.5t-229 151.5q-96 93 -154.5 222.5t-58.5 283.5zM410 684q0 -136 65.5 -233t172.5 -142 q72 -30 155 -30q133 0 227 68t136 177q30 76 30 160q0 131 -63.5 231t-166.5 144q-82 35 -163 35q-126 0 -222 -67.5t-138 -171.5q-33 -82 -33 -171zM418 1817h389l145 -312h-290z" />
<glyph unicode="&#xd3;" d="M72 684q0 154 59 284t154 225q96 95 228.5 152.5t289.5 57.5t289.5 -57.5t228.5 -152.5q95 -95 154 -225t59 -284t-58.5 -283t-154.5 -223q-97 -94 -229 -151.5t-289 -57.5t-289 57.5t-229 151.5q-96 93 -154.5 222.5t-58.5 283.5zM410 684q0 -136 65.5 -233t172.5 -142 q72 -30 155 -30q133 0 227 68t136 177q30 76 30 160q0 131 -63.5 231t-166.5 144q-82 35 -163 35q-126 0 -222 -67.5t-138 -171.5q-33 -82 -33 -171zM659 1505l146 312h389l-244 -312h-291z" />
<glyph unicode="&#xd4;" d="M72 684q0 154 59 284t154 225q96 95 228.5 152.5t289.5 57.5t289.5 -57.5t228.5 -152.5q95 -95 154 -225t59 -284t-58.5 -283t-154.5 -223q-97 -94 -229 -151.5t-289 -57.5t-289 57.5t-229 151.5q-96 93 -154.5 222.5t-58.5 283.5zM406 1493l235 317h326l237 -317h-317 l-82 115l-84 -115h-315zM410 684q0 -136 65.5 -233t172.5 -142q72 -30 155 -30q133 0 227 68t136 177q30 76 30 160q0 131 -63.5 231t-166.5 144q-82 35 -163 35q-126 0 -222 -67.5t-138 -171.5q-33 -82 -33 -171z" />
<glyph unicode="&#xd5;" d="M72 684q0 154 59 284t154 225q96 95 228.5 152.5t289.5 57.5t289.5 -57.5t228.5 -152.5q95 -95 154 -225t59 -284t-58.5 -283t-154.5 -223q-97 -94 -229 -151.5t-289 -57.5t-289 57.5t-229 151.5q-96 93 -154.5 222.5t-58.5 283.5zM410 684q0 -136 65.5 -233t172.5 -142 q72 -30 155 -30q133 0 227 68t136 177q30 76 30 160q0 131 -63.5 231t-166.5 144q-82 35 -163 35q-126 0 -222 -67.5t-138 -171.5q-33 -82 -33 -171zM444 1530q0 194 116 274q53 37 120 37q35 0 63 -6.5t44.5 -14t53.5 -27.5q54 -28 87 -28q52 0 63 74h199q0 -199 -116 -278 q-53 -37 -122 -37q-74 0 -132 32q-10 5 -24.5 13t-20 11t-15 7.5t-16 6t-16 2.5t-21.5 1q-54 0 -64 -67h-199z" />
<glyph unicode="&#xd6;" d="M72 684q0 154 59 284t154 225q96 95 228.5 152.5t289.5 57.5t289.5 -57.5t228.5 -152.5q95 -95 154 -225t59 -284t-58.5 -283t-154.5 -223q-97 -94 -229 -151.5t-289 -57.5t-289 57.5t-229 151.5q-96 93 -154.5 222.5t-58.5 283.5zM387 1661q0 75 52.5 127.5t129.5 52.5 q76 0 130.5 -52t54.5 -128q0 -75 -54 -126.5t-131 -51.5t-129.5 51t-52.5 127zM410 684q0 -136 65.5 -233t172.5 -142q72 -30 155 -30q133 0 227 68t136 177q30 76 30 160q0 131 -63.5 231t-166.5 144q-82 35 -163 35q-126 0 -222 -67.5t-138 -171.5q-33 -82 -33 -171z M854 1661q0 75 52 127.5t130 52.5q76 0 130.5 -52t54.5 -128q0 -75 -54 -126.5t-131 -51.5t-129.5 51t-52.5 127z" />
<glyph unicode="&#xd7;" horiz-adv-x="1087" d="M84 352l270 271l-270 268l188 190l273 -270l270 270l191 -190l-271 -268l271 -271l-191 -190l-270 270l-273 -270z" />
<glyph unicode="&#xd8;" d="M72 684q0 154 59 284t154 225q96 95 228.5 152.5t289.5 57.5q125 0 238 -37.5t198 -99.5l113 112l164 -164l-115 -114q133 -184 133 -416q0 -154 -58.5 -283t-154.5 -223q-97 -94 -229 -151.5t-289 -57.5q-227 0 -412 121l-137 -137l-164 164l131 131q-67 85 -108 197 t-41 239zM410 684q0 -110 47 -201l553 553q-95 58 -207 58q-126 0 -222 -67.5t-138 -171.5q-33 -82 -33 -171zM623 322q79 -43 180 -43q133 0 227 68t136 177q30 76 30 160q0 92 -35 176z" />
<glyph unicode="&#xd9;" horiz-adv-x="1460" d="M115 618v754h338v-754q0 -149 75 -243t209 -94q128 0 199.5 95.5t71.5 241.5v754h338v-754q0 -223 -97 -379t-265 -224q-113 -46 -247 -46q-218 0 -364.5 104t-212.5 281q-45 121 -45 264zM344 1817h389l146 -312h-291z" />
<glyph unicode="&#xda;" horiz-adv-x="1460" d="M115 618v754h338v-754q0 -149 75 -243t209 -94q128 0 199.5 95.5t71.5 241.5v754h338v-754q0 -223 -97 -379t-265 -224q-113 -46 -247 -46q-218 0 -364.5 104t-212.5 281q-45 121 -45 264zM586 1505l145 312h389l-243 -312h-291z" />
<glyph unicode="&#xdb;" horiz-adv-x="1460" d="M115 618v754h338v-754q0 -149 75 -243t209 -94q128 0 199.5 95.5t71.5 241.5v754h338v-754q0 -223 -97 -379t-265 -224q-113 -46 -247 -46q-218 0 -364.5 104t-212.5 281q-45 121 -45 264zM332 1493l235 317h326l237 -317h-317l-82 115l-84 -115h-315z" />
<glyph unicode="&#xdc;" horiz-adv-x="1460" d="M115 618v754h338v-754q0 -149 75 -243t209 -94q128 0 199.5 95.5t71.5 241.5v754h338v-754q0 -223 -97 -379t-265 -224q-113 -46 -247 -46q-218 0 -364.5 104t-212.5 281q-45 121 -45 264zM313 1661q0 75 52.5 127.5t130.5 52.5q76 0 130 -52t54 -128q0 -75 -53.5 -126.5 t-130.5 -51.5t-130 51.5t-53 126.5zM780 1661q0 75 52.5 127.5t130.5 52.5q76 0 130 -52t54 -128q0 -75 -53.5 -126.5t-130.5 -51.5t-130 51.5t-53 126.5z" />
<glyph unicode="&#xdd;" horiz-adv-x="1445" d="M14 1372h369l338 -602l334 602h377l-543 -942v-430h-344v426zM580 1505l145 312h389l-244 -312h-290z" />
<glyph unicode="&#xde;" horiz-adv-x="1333" d="M119 0v1372h338v-215h307q172 0 292.5 -75t173.5 -204q36 -87 36 -190q0 -166 -84.5 -278t-222.5 -161q-93 -34 -207 -34h-295v-215h-338zM457 498h274q88 0 145.5 51.5t57.5 134.5t-57.5 133.5t-145.5 50.5h-274v-370z" />
<glyph unicode="&#xdf;" horiz-adv-x="1359" d="M119 0v952q0 193 93 326t248 191q107 40 232 40q170 0 295 -68.5t183 -187.5q38 -79 38 -166q0 -107 -47 -187t-125 -116q123 -36 195 -128.5t72 -239.5q0 -149 -75 -252t-198 -150q-83 -32 -186 -32q-142 0 -281 24l35 268q129 -20 195 -20q84 0 146 50t62 128 q0 97 -77.5 147t-194.5 50h-88v262h45q86 0 145.5 44t59.5 118q0 82 -56.5 132t-142.5 50q-112 0 -179 -71t-67 -187v-977h-327z" />
<glyph unicode="&#xe0;" horiz-adv-x="1138" d="M47 305q0 162 119.5 247t308.5 85h262v20q0 63 -41 103.5t-104 40.5q-109 0 -149 -66h-332q42 187 235 278q98 46 236 46q164 0 276.5 -60.5t161.5 -174.5q33 -76 33 -173v-651h-316v76q-125 -107 -307 -107q-167 0 -275 90.5t-108 245.5zM195 1473h389l145 -312h-291z M379 322q0 -50 42 -78.5t101 -28.5q114 0 181 86q34 43 34 105v22h-225q-56 0 -94.5 -28.5t-38.5 -77.5z" />
<glyph unicode="&#xe1;" horiz-adv-x="1138" d="M47 305q0 162 119.5 247t308.5 85h262v20q0 63 -41 103.5t-104 40.5q-109 0 -149 -66h-332q42 187 235 278q98 46 236 46q164 0 276.5 -60.5t161.5 -174.5q33 -76 33 -173v-651h-316v76q-125 -107 -307 -107q-167 0 -275 90.5t-108 245.5zM379 322q0 -50 42 -78.5 t101 -28.5q114 0 181 86q34 43 34 105v22h-225q-56 0 -94.5 -28.5t-38.5 -77.5zM436 1161l146 312h389l-244 -312h-291z" />
<glyph unicode="&#xe2;" horiz-adv-x="1138" d="M47 305q0 162 119.5 247t308.5 85h262v20q0 63 -41 103.5t-104 40.5q-109 0 -149 -66h-332q42 187 235 278q98 46 236 46q164 0 276.5 -60.5t161.5 -174.5q33 -76 33 -173v-651h-316v76q-125 -107 -307 -107q-167 0 -275 90.5t-108 245.5zM182 1182l236 317h325l238 -317 h-317l-82 114l-84 -114h-316zM379 322q0 -50 42 -78.5t101 -28.5q114 0 181 86q34 43 34 105v22h-225q-56 0 -94.5 -28.5t-38.5 -77.5z" />
<glyph unicode="&#xe3;" horiz-adv-x="1138" d="M47 305q0 162 119.5 247t308.5 85h262v20q0 63 -41 103.5t-104 40.5q-109 0 -149 -66h-332q42 187 235 278q98 46 236 46q164 0 276.5 -60.5t161.5 -174.5q33 -76 33 -173v-651h-316v76q-125 -107 -307 -107q-167 0 -275 90.5t-108 245.5zM209 1188q0 194 116 274 q53 37 119 37q35 0 63 -6.5t44.5 -14t53.5 -27.5q54 -28 87 -28q53 0 64 74h198q0 -200 -115 -278q-53 -37 -122 -37q-74 0 -132 32q-9 5 -24 13.5t-20.5 11t-15.5 7t-16.5 6t-16 2.5t-21.5 1q-53 0 -63 -67h-199zM379 322q0 -50 42 -78.5t101 -28.5q114 0 181 86 q34 43 34 105v22h-225q-56 0 -94.5 -28.5t-38.5 -77.5z" />
<glyph unicode="&#xe4;" horiz-adv-x="1138" d="M47 305q0 162 119.5 247t308.5 85h262v20q0 63 -41 103.5t-104 40.5q-109 0 -149 -66h-332q42 187 235 278q98 46 236 46q164 0 276.5 -60.5t161.5 -174.5q33 -76 33 -173v-651h-316v76q-125 -107 -307 -107q-167 0 -275 90.5t-108 245.5zM165 1360q0 76 52.5 128 t129.5 52q76 0 130 -52t54 -128q0 -75 -53.5 -126.5t-130.5 -51.5t-129.5 51t-52.5 127zM379 322q0 -50 42 -78.5t101 -28.5q114 0 181 86q34 43 34 105v22h-225q-56 0 -94.5 -28.5t-38.5 -77.5zM632 1360q0 76 52 128t130 52q76 0 130 -52t54 -128q0 -75 -53.5 -126.5 t-130.5 -51.5t-129.5 51t-52.5 127z" />
<glyph unicode="&#xe5;" horiz-adv-x="1138" d="M47 305q0 162 119.5 247t308.5 85h262v20q0 63 -41 103.5t-104 40.5q-109 0 -149 -66h-332q42 187 235 278q98 46 236 46q164 0 276.5 -60.5t161.5 -174.5q33 -76 33 -173v-651h-316v76q-125 -107 -307 -107q-167 0 -275 90.5t-108 245.5zM324 1432q0 106 75 178.5 t183 72.5t183 -72.5t75 -178.5q0 -104 -75 -177t-183 -73t-183 73t-75 177zM379 322q0 -50 42 -78.5t101 -28.5q114 0 181 86q34 43 34 105v22h-225q-56 0 -94.5 -28.5t-38.5 -77.5zM498 1432q0 -33 25 -56.5t59 -23.5t59 23.5t25 56.5t-25 57t-59 24t-59 -24t-25 -57z" />
<glyph unicode="&#xe6;" horiz-adv-x="1835" d="M47 299q0 108 58.5 179.5t152 101.5t219.5 30h260v47q0 66 -45.5 108t-113.5 42q-67 0 -110.5 -35.5t-51.5 -97.5l-303 61q24 149 153.5 236.5t313.5 87.5q213 0 342 -109q143 109 329 109q198 0 351 -125q82 -68 132 -183t50 -251v-82h-752q21 -85 79.5 -136t150.5 -51 q142 0 204 119l287 -59q-40 -144 -176.5 -233t-319.5 -89q-114 0 -213 40.5t-170 105.5q-68 -66 -176.5 -106t-234.5 -40q-184 0 -300 85.5t-116 244.5zM371 317q0 -52 41 -80t102 -28q84 0 153.5 50.5t69.5 123.5v31h-225q-62 0 -101.5 -24t-39.5 -73zM1032 610h430 q-15 81 -67.5 134t-137.5 53q-89 0 -149.5 -53.5t-75.5 -133.5z" />
<glyph unicode="&#xe7;" horiz-adv-x="1187" d="M51 514q0 139 57 247.5t149 179.5q153 118 355 118q187 0 335 -109q147 -108 190 -286h-333q-27 48 -77.5 78t-114.5 30q-108 0 -176.5 -72.5t-68.5 -185.5q0 -111 67.5 -184.5t177.5 -73.5q132 0 196 115h329q-27 -125 -107.5 -218t-192.5 -140q-106 -44 -225 -44 q-233 0 -395 151q-75 70 -120.5 171t-45.5 223zM290 -347l205 327h235l-100 -327h-340z" />
<glyph unicode="&#xe8;" horiz-adv-x="1177" d="M51 514q0 185 93 315t243 190q99 40 209 40q178 0 302.5 -89t183.5 -233q43 -103 44 -223v-84h-753q19 -85 76.5 -142t144.5 -57q153 0 219 119l291 -59q-63 -151 -190 -236.5t-320 -85.5q-225 0 -383 151q-73 70 -116.5 171t-43.5 223zM215 1473h389l146 -312h-291z M379 631h424q-21 72 -75 117t-132 45q-77 0 -137 -47t-80 -115z" />
<glyph unicode="&#xe9;" horiz-adv-x="1177" d="M51 514q0 185 93 315t243 190q99 40 209 40q178 0 302.5 -89t183.5 -233q43 -103 44 -223v-84h-753q19 -85 76.5 -142t144.5 -57q153 0 219 119l291 -59q-63 -151 -190 -236.5t-320 -85.5q-225 0 -383 151q-73 70 -116.5 171t-43.5 223zM379 631h424q-21 72 -75 117 t-132 45q-77 0 -137 -47t-80 -115zM457 1161l145 312h389l-243 -312h-291z" />
<glyph unicode="&#xea;" horiz-adv-x="1177" d="M51 514q0 185 93 315t243 190q99 40 209 40q178 0 302.5 -89t183.5 -233q43 -103 44 -223v-84h-753q19 -85 76.5 -142t144.5 -57q153 0 219 119l291 -59q-63 -151 -190 -236.5t-320 -85.5q-225 0 -383 151q-73 70 -116.5 171t-43.5 223zM203 1149l235 317h326l237 -317 h-317l-82 115l-84 -115h-315zM379 631h424q-21 72 -75 117t-132 45q-77 0 -137 -47t-80 -115z" />
<glyph unicode="&#xeb;" horiz-adv-x="1177" d="M51 514q0 185 93 315t243 190q99 40 209 40q178 0 302.5 -89t183.5 -233q43 -103 44 -223v-84h-753q19 -85 76.5 -142t144.5 -57q153 0 219 119l291 -59q-63 -151 -190 -236.5t-320 -85.5q-225 0 -383 151q-73 70 -116.5 171t-43.5 223zM184 1317q0 75 52.5 127.5 t130.5 52.5q76 0 130 -52t54 -128q0 -75 -53.5 -126.5t-130.5 -51.5t-130 51.5t-53 126.5zM379 631h424q-21 72 -75 117t-132 45q-77 0 -137 -47t-80 -115zM651 1317q0 75 52.5 127.5t130.5 52.5q76 0 130 -52t54 -128q0 -75 -53.5 -126.5t-130.5 -51.5t-130 51.5t-53 126.5 z" />
<glyph unicode="&#xec;" horiz-adv-x="608" d="M-80 1473h389l146 -312h-291zM141 0v1028h326v-1028h-326z" />
<glyph unicode="&#xed;" horiz-adv-x="608" d="M141 0v1028h326v-1028h-326zM162 1161l145 312h389l-243 -312h-291z" />
<glyph unicode="&#xee;" horiz-adv-x="608" d="M-94 1149l235 317h326l238 -317h-318l-82 115l-84 -115h-315zM141 0v1028h326v-1028h-326z" />
<glyph unicode="&#xef;" horiz-adv-x="608" d="M-111 1317q0 75 52.5 127.5t130.5 52.5q76 0 130 -52t54 -128q0 -75 -53.5 -126.5t-130.5 -51.5t-130 51.5t-53 126.5zM141 0v1028h326v-1028h-326zM356 1317q0 75 52.5 127.5t130.5 52.5q76 0 130 -52t54 -128q0 -75 -53.5 -126.5t-130.5 -51.5t-130 51.5t-53 126.5z " />
<glyph unicode="&#xf0;" horiz-adv-x="1239" d="M51 514q0 240 156 401q60 63 156 103.5t204 40.5q64 0 121 -21q-53 61 -121 119l-272 -106l-74 178l154 59q-117 65 -266 123v64h495q29 -16 88 -62l211 84l74 -180l-127 -49q211 -232 296 -489q42 -127 42 -261q0 -199 -98.5 -329t-262.5 -186q-99 -34 -202 -34 q-120 0 -224.5 41.5t-179.5 109.5q-77 70 -123.5 170t-46.5 224zM367 514q0 -112 74.5 -189t181.5 -77q108 0 176.5 78t68.5 192q0 107 -70.5 184.5t-176.5 77.5q-112 0 -183 -76.5t-71 -189.5z" />
<glyph unicode="&#xf1;" horiz-adv-x="1265" d="M119 0v1028h327v-98q55 59 136.5 94t179.5 35q140 0 235 -69.5t136 -184.5q28 -78 28 -174v-631h-325v561q0 85 -48 144t-129 59q-110 0 -161.5 -77.5t-51.5 -209.5v-477h-327zM283 1186q0 195 115 274q53 37 120 37q35 0 63 -6.5t44.5 -14t53.5 -27.5q54 -28 87 -28 q52 0 63 74h199q0 -199 -116 -278q-53 -37 -121 -37q-75 0 -133 32q-10 5 -24.5 13t-20 11t-15 7.5t-16 6t-16 2.5t-21.5 1q-54 0 -64 -67h-198z" />
<glyph unicode="&#xf2;" horiz-adv-x="1234" d="M51 514q0 235 167 390q75 69 178.5 110t224.5 41q177 0 314 -86.5t199 -225.5q50 -114 50 -229q0 -186 -97 -315.5t-251 -188.5q-102 -39 -215 -39q-207 0 -372 125q-88 66 -143 177t-55 241zM236 1473h389l145 -312h-291zM367 514q0 -113 73 -189.5t181 -76.5 q104 0 175.5 77.5t71.5 188.5q0 108 -72 187t-175 79q-109 0 -181.5 -76.5t-72.5 -189.5z" />
<glyph unicode="&#xf3;" horiz-adv-x="1234" d="M51 514q0 235 167 390q75 69 178.5 110t224.5 41q177 0 314 -86.5t199 -225.5q50 -114 50 -229q0 -186 -97 -315.5t-251 -188.5q-102 -39 -215 -39q-207 0 -372 125q-88 66 -143 177t-55 241zM367 514q0 -113 73 -189.5t181 -76.5q104 0 175.5 77.5t71.5 188.5 q0 108 -72 187t-175 79q-109 0 -181.5 -76.5t-72.5 -189.5zM477 1161l146 312h389l-244 -312h-291z" />
<glyph unicode="&#xf4;" horiz-adv-x="1234" d="M51 514q0 235 167 390q75 69 178.5 110t224.5 41q177 0 314 -86.5t199 -225.5q50 -114 50 -229q0 -186 -97 -315.5t-251 -188.5q-102 -39 -215 -39q-207 0 -372 125q-88 66 -143 177t-55 241zM221 1149l236 317h325l238 -317h-318l-81 115l-84 -115h-316zM367 514 q0 -113 73 -189.5t181 -76.5q104 0 175.5 77.5t71.5 188.5q0 108 -72 187t-175 79q-109 0 -181.5 -76.5t-72.5 -189.5z" />
<glyph unicode="&#xf5;" horiz-adv-x="1234" d="M51 514q0 235 167 390q75 69 178.5 110t224.5 41q177 0 314 -86.5t199 -225.5q50 -114 50 -229q0 -186 -97 -315.5t-251 -188.5q-102 -39 -215 -39q-207 0 -372 125q-88 66 -143 177t-55 241zM262 1186q0 194 116 274q53 37 120 37q35 0 63 -6.5t43.5 -14t53.5 -27.5 q54 -28 87 -28q53 0 64 74h199q0 -199 -116 -278q-53 -37 -122 -37q-74 0 -132 32q-9 5 -24 13.5t-20.5 11t-15.5 7t-16.5 6t-16 2.5t-21.5 1q-53 0 -63 -67h-199zM367 514q0 -113 73 -189.5t181 -76.5q104 0 175.5 77.5t71.5 188.5q0 108 -72 187t-175 79 q-109 0 -181.5 -76.5t-72.5 -189.5z" />
<glyph unicode="&#xf6;" horiz-adv-x="1234" d="M51 514q0 235 167 390q75 69 178.5 110t224.5 41q177 0 314 -86.5t199 -225.5q50 -114 50 -229q0 -186 -97 -315.5t-251 -188.5q-102 -39 -215 -39q-207 0 -372 125q-88 66 -143 177t-55 241zM205 1317q0 75 52.5 127.5t129.5 52.5q76 0 130 -52t54 -128 q0 -75 -53.5 -126.5t-130.5 -51.5t-129.5 51t-52.5 127zM367 514q0 -113 73 -189.5t181 -76.5q104 0 175.5 77.5t71.5 188.5q0 108 -72 187t-175 79q-109 0 -181.5 -76.5t-72.5 -189.5zM672 1317q0 75 52 127.5t130 52.5q76 0 130 -52t54 -128q0 -75 -53.5 -126.5 t-130.5 -51.5t-129.5 51t-52.5 127z" />
<glyph unicode="&#xf7;" horiz-adv-x="1173" d="M102 508v268h969v-268h-969zM406 268q0 69 52.5 120.5t123.5 51.5t123.5 -51.5t52.5 -120.5q0 -74 -50 -123t-126 -49q-74 0 -125 48.5t-51 123.5zM406 1022q0 69 52.5 120.5t123.5 51.5t123.5 -51.5t52.5 -120.5q0 -74 -50 -123t-126 -49q-74 0 -125 48.5t-51 123.5z " />
<glyph unicode="&#xf8;" horiz-adv-x="1234" d="M51 514q0 235 167 390q75 69 178.5 110t224.5 41q176 0 317 -90l104 104l132 -131l-99 -98q109 -139 109 -326q0 -186 -97 -315.5t-251 -188.5q-102 -39 -215 -39q-179 0 -324 90l-107 -106l-131 131l101 100q-109 142 -109 328zM367 514q0 -56 18 -102l342 342 q-45 26 -106 26q-109 0 -181.5 -76.5t-72.5 -189.5zM510 274q49 -26 111 -26q104 0 175.5 77.5t71.5 188.5q0 52 -16 100z" />
<glyph unicode="&#xf9;" horiz-adv-x="1265" d="M104 397v631h326v-561q0 -85 47.5 -144t128.5 -59q110 0 161.5 77.5t51.5 209.5v477h328v-1028h-328v98q-55 -59 -136 -94t-179 -35q-140 0 -235 69.5t-136 184.5q-29 81 -29 174zM244 1473h389l145 -312h-291z" />
<glyph unicode="&#xfa;" horiz-adv-x="1265" d="M104 397v631h326v-561q0 -85 47.5 -144t128.5 -59q110 0 161.5 77.5t51.5 209.5v477h328v-1028h-328v98q-55 -59 -136 -94t-179 -35q-140 0 -235 69.5t-136 184.5q-29 81 -29 174zM487 1161l146 312h389l-244 -312h-291z" />
<glyph unicode="&#xfb;" horiz-adv-x="1265" d="M104 397v631h326v-561q0 -85 47.5 -144t128.5 -59q110 0 161.5 77.5t51.5 209.5v477h328v-1028h-328v98q-55 -59 -136 -94t-179 -35q-140 0 -235 69.5t-136 184.5q-29 81 -29 174zM231 1149l236 317h326l237 -317h-317l-82 115l-84 -115h-316z" />
<glyph unicode="&#xfc;" horiz-adv-x="1265" d="M104 397v631h326v-561q0 -85 47.5 -144t128.5 -59q110 0 161.5 77.5t51.5 209.5v477h328v-1028h-328v98q-55 -59 -136 -94t-179 -35q-140 0 -235 69.5t-136 184.5q-29 81 -29 174zM213 1317q0 75 52.5 127.5t129.5 52.5q76 0 130.5 -52t54.5 -128q0 -75 -54 -126.5 t-131 -51.5t-129.5 51t-52.5 127zM680 1317q0 75 52 127.5t130 52.5q76 0 130.5 -52t54.5 -128q0 -75 -54 -126.5t-131 -51.5t-129.5 51t-52.5 127z" />
<glyph unicode="&#xfd;" horiz-adv-x="1236" d="M14 1030h353l243 -600l260 600h353l-594 -1378h-355l166 383zM463 1163l145 312h389l-243 -312h-291z" />
<glyph unicode="&#xfe;" horiz-adv-x="1318" d="M119 -348v1823h327v-529q125 113 320 113q237 0 393 -200q49 -63 79 -155t30 -190q0 -119 -41 -221t-108 -173q-144 -151 -353 -151q-195 0 -320 113v-430h-327zM446 514q0 -112 73 -189t179 -77q110 0 179 75t69 191q0 113 -68.5 189.5t-179.5 76.5q-106 0 -179 -78 t-73 -188z" />
<glyph unicode="&#xff;" horiz-adv-x="1236" d="M14 1030h353l243 -600l260 600h353l-594 -1378h-355l166 383zM188 1319q0 75 52.5 127.5t130.5 52.5q76 0 130 -52t54 -128q0 -75 -53.5 -126.5t-130.5 -51.5t-130 51.5t-53 126.5zM655 1319q0 75 52.5 127.5t130.5 52.5q76 0 130 -52t54 -128q0 -75 -53.5 -126.5 t-130.5 -51.5t-130 51.5t-53 126.5z" />
<glyph unicode="&#x152;" horiz-adv-x="2107" d="M72 686q0 155 59 279.5t158 213.5q101 91 247 142t322 51h1151v-291h-725v-258h666v-274h-666v-258h731v-291h-1157q-266 0 -455 110.5t-275 303.5q-56 125 -56 272zM410 686q0 -185 124 -290t324 -105h88v790h-88q-200 0 -324 -105t-124 -290z" />
<glyph unicode="&#x153;" horiz-adv-x="1994" d="M51 514q0 235 167 390q75 69 178.5 110t224.5 41q122 0 226 -42t175 -112q71 71 173 114.5t220 43.5q178 0 302 -88.5t183 -233.5q43 -103 44 -223v-84h-754q19 -86 77 -142.5t146 -56.5q151 0 217 119l293 -59q-63 -151 -190 -236.5t-320 -85.5q-119 0 -218.5 43 t-172.5 113q-71 -70 -175 -112t-226 -42q-207 0 -372 125q-88 66 -143 177t-55 241zM367 514q0 -113 73 -189.5t181 -76.5q104 0 175.5 77.5t71.5 188.5q0 108 -72 187t-175 79q-109 0 -181.5 -76.5t-72.5 -189.5zM1196 631h424q-21 72 -74 117t-131 45t-138.5 -47 t-80.5 -115z" />
<glyph unicode="&#x178;" horiz-adv-x="1445" d="M14 1372h369l338 -602l334 602h377l-543 -942v-430h-344v426zM307 1661q0 75 52.5 127.5t129.5 52.5q76 0 130.5 -52t54.5 -128q0 -75 -54 -126.5t-131 -51.5t-129.5 51t-52.5 127zM774 1661q0 75 52 127.5t130 52.5q76 0 130.5 -52t54.5 -128q0 -75 -54 -126.5 t-131 -51.5t-129.5 51t-52.5 127z" />
<glyph unicode="&#x2c6;" horiz-adv-x="1228" d="M217 1149l236 317h325l238 -317h-318l-82 115l-84 -115h-315z" />
<glyph unicode="&#x2dc;" horiz-adv-x="1228" d="M258 1186q0 194 116 274q53 37 120 37q35 0 63 -6.5t43.5 -14t53.5 -27.5q54 -28 87 -28q53 0 64 74h199q0 -199 -116 -278q-53 -37 -122 -37q-74 0 -132 32q-9 5 -24 13.5t-20.5 11t-15.5 7t-16.5 6t-16 2.5t-21.5 1q-53 0 -63 -67h-199z" />
<glyph unicode="&#x2000;" horiz-adv-x="979" />
<glyph unicode="&#x2001;" horiz-adv-x="1958" />
<glyph unicode="&#x2002;" horiz-adv-x="979" />
<glyph unicode="&#x2003;" horiz-adv-x="1958" />
<glyph unicode="&#x2004;" horiz-adv-x="652" />
<glyph unicode="&#x2005;" horiz-adv-x="489" />
<glyph unicode="&#x2006;" horiz-adv-x="326" />
<glyph unicode="&#x2007;" horiz-adv-x="326" />
<glyph unicode="&#x2008;" horiz-adv-x="244" />
<glyph unicode="&#x2009;" horiz-adv-x="391" />
<glyph unicode="&#x200a;" horiz-adv-x="108" />
<glyph unicode="&#x2010;" horiz-adv-x="923" d="M123 399v277h678v-277h-678z" />
<glyph unicode="&#x2011;" horiz-adv-x="923" d="M123 399v277h678v-277h-678z" />
<glyph unicode="&#x2012;" horiz-adv-x="923" d="M123 399v277h678v-277h-678z" />
<glyph unicode="&#x2013;" horiz-adv-x="1269" d="M123 412v252h1024v-252h-1024z" />
<glyph unicode="&#x2014;" horiz-adv-x="2129" d="M123 412v252h1884v-252h-1884z" />
<glyph unicode="&#x2018;" horiz-adv-x="612" d="M66 782v9l235 581h248l-121 -590h-362z" />
<glyph unicode="&#x2019;" horiz-adv-x="612" d="M66 782l120 590h363v-8l-236 -582h-247z" />
<glyph unicode="&#x201a;" horiz-adv-x="612" d="M66 -270l120 589h363v-8l-236 -581h-247z" />
<glyph unicode="&#x201c;" horiz-adv-x="1050" d="M66 782v9l235 581h248l-121 -590h-362zM502 782v9l235 581h248l-121 -590h-362z" />
<glyph unicode="&#x201d;" horiz-adv-x="1050" d="M66 782l120 590h363v-8l-236 -582h-247zM502 782l121 590h362v-8l-235 -582h-248z" />
<glyph unicode="&#x201e;" horiz-adv-x="1050" d="M66 -270l120 589h363v-8l-236 -581h-247zM502 -270l121 589h362v-8l-235 -581h-248z" />
<glyph unicode="&#x2022;" horiz-adv-x="849" d="M66 532q0 110 53 189t140 127q71 39 165 39q98 0 174.5 -43.5t126.5 -117.5q59 -87 59 -194q0 -152 -102.5 -251t-257.5 -99q-135 0 -239 85q-51 42 -85 112t-34 153z" />
<glyph unicode="&#x2026;" horiz-adv-x="1638" d="M66 174q0 75 55 129.5t131 54.5t132 -54.5t56 -129.5q0 -78 -54.5 -131t-133.5 -53t-132.5 53t-53.5 131zM631 174q0 77 54.5 130.5t133.5 53.5q76 0 131.5 -54.5t55.5 -129.5q0 -78 -54 -131t-133 -53q-81 0 -134.5 52.5t-53.5 131.5zM1198 174q0 75 55 129.5t131 54.5 q79 0 134 -53.5t55 -130.5q0 -79 -53.5 -131.5t-135.5 -52.5q-79 0 -132.5 53t-53.5 131z" />
<glyph unicode="&#x202f;" horiz-adv-x="391" />
<glyph unicode="&#x2039;" horiz-adv-x="624" d="M51 537l215 364h307l-215 -364l215 -365h-307z" />
<glyph unicode="&#x203a;" horiz-adv-x="624" d="M51 172l215 365l-215 364h307l215 -364l-215 -365h-307z" />
<glyph unicode="&#x205f;" horiz-adv-x="489" />
<glyph unicode="&#x20ac;" horiz-adv-x="1558" d="M113 444v197h170v90h-170v195h198q26 101 76 186.5t122 151t171 102.5t215 37q119 0 221 -40t175.5 -110t123 -161t72.5 -197l-334 -64q-23 122 -87 199.5t-171 77.5q-85 0 -144 -51t-92 -131h365l-43 -195h-360l-3 -45l3 -45h344l-43 -197h-263q31 -77 91.5 -127.5 t144.5 -50.5q196 0 264 281l328 -66q-20 -107 -69 -199t-122.5 -162.5t-176.5 -110.5t-224 -40q-226 0 -377.5 133t-206.5 342h-198z" />
<glyph unicode="&#x2122;" horiz-adv-x="1411" d="M72 1221v151h526v-151h-174v-416h-180v416h-172zM659 805v567h193l137 -307l137 307h191v-567h-168v272l-115 -270h-90l-115 270v-272h-170z" />
<glyph unicode="&#x25fc;" horiz-adv-x="1034" d="M0 0v1034h1034v-1034h-1034z" />
</font>
</defs>
</svg>
