<?xml version="1.0" standalone="no"?>
<!DOCTYPE svg PUBLIC "-//W3C//DTD SVG 1.1//EN" "http://www.w3.org/Graphics/SVG/1.1/DTD/svg11.dtd" >
<svg xmlns="http://www.w3.org/2000/svg" xmlns:xlink="http://www.w3.org/1999/xlink" version="1.1">
<metadata></metadata>
<defs>
<font id="galyonregular" horiz-adv-x="1644" >
<font-face units-per-em="2048" ascent="1638" descent="-410" />
<missing-glyph horiz-adv-x="516" />
<glyph unicode="&#xfb01;" horiz-adv-x="1269" d="M41 879v131h176v149q0 161 94 255q95 95 254 95q104 0 189 -49l-41 -127q-67 35 -138 35q-91 0 -147 -57q-55 -56 -55 -152v-149h700v-1010h-158v879h-542v-879h-156v879h-176zM887 1315q0 40 31 73q30 31 75 31q46 0 77 -31q32 -32 32 -73q0 -44 -32 -74 q-33 -31 -77 -31t-75 31t-31 74z" />
<glyph unicode="&#xfb02;" horiz-adv-x="1245" d="M41 879v131h176v149q0 161 94 255q95 95 252 95q93 0 164 -36l-39 -127q-56 22 -115 22q-89 0 -145 -57q-55 -56 -55 -152v-149h366v-131h-366v-879h-156v879h-176zM909 0v1475h156v-1475h-156z" />
<glyph horiz-adv-x="0" />
<glyph horiz-adv-x="682" />
<glyph unicode=" "  horiz-adv-x="516" />
<glyph unicode="&#x09;" horiz-adv-x="516" />
<glyph unicode="&#xa0;" horiz-adv-x="516" />
<glyph unicode="!" horiz-adv-x="550" d="M170 96q0 40 31 73q30 32 75 32q46 0 76 -32q31 -33 31 -73q0 -41 -31 -72q-30 -30 -76 -30q-45 0 -75 30q-31 31 -31 72zM193 1309v63h169v-63l-6 -901h-159z" />
<glyph unicode="&#x22;" horiz-adv-x="692" d="M113 803v569h159v-569h-159zM420 803v569h160v-569h-160z" />
<glyph unicode="#" horiz-adv-x="1390" d="M59 350l35 133h219l97 379h-222l37 133h217l97 377h141l-96 -377h385l94 377h141l-94 -377h221l-39 -133h-217l-94 -379h219l-37 -133h-217l-88 -350h-141l88 350h-385l-88 -350h-142l89 350h-220zM455 483h385l94 379h-383z" />
<glyph unicode="$" horiz-adv-x="1204" d="M106 426l158 33q12 -119 90 -194t193 -93v463l-92 20q-97 21 -167 63q-71 42 -108 106t-37 153q0 156 110 255q109 99 288 114v231h137v-236q169 -21 274 -120q106 -100 121 -248l-155 -31q-6 68 -36 120t-83 90q-51 37 -127 52v-446l102 -23q320 -68 320 -332 q0 -100 -46 -179q-46 -78 -140 -133t-230 -62v-234h-137v238q-178 22 -299 127t-136 266zM305 987q0 -39 18 -79q17 -39 62 -66q43 -26 113 -43l49 -13v424q-56 -7 -109 -29q-58 -25 -95 -76q-38 -53 -38 -118zM672 166q60 5 122 28q63 24 104 77q42 54 42 126q0 82 -52 128 t-153 67l-63 14v-440z" />
<glyph unicode="%" horiz-adv-x="1734" d="M99 1011q0 85 23 162q22 72 67 130q44 56 105 86q59 29 134 29t134 -29q61 -30 105 -86t66 -130q23 -77 23 -162t-23 -162q-22 -74 -66 -130q-43 -55 -105 -85t-134 -30t-134 30t-105 85q-45 58 -67 130q-23 77 -23 162zM228 1011q0 -65 15 -117t42 -90q28 -39 63 -57 q37 -20 76 -20q37 0 70 13t66 50q32 37 49 97q17 62 17 124q0 64 -15 118q-15 55 -41 91q-28 39 -63 57q-35 19 -79 19q-32 0 -67 -13q-33 -13 -66 -50q-34 -39 -50 -97q-17 -63 -17 -125zM264 0l1026 1372h154l-1026 -1372h-154zM979 362q0 85 23 162q22 72 67 130 q42 54 106 85q61 30 134 30q71 0 133 -30t105 -85q45 -58 67 -130q23 -77 23 -162t-23 -162q-22 -72 -67 -130q-43 -55 -105 -85t-133 -30q-73 0 -134 30q-64 31 -106 85q-45 58 -67 130q-23 77 -23 162zM1109 362q0 -64 15 -117q16 -55 41 -90q28 -39 63 -57q37 -20 76 -20 q38 0 71 13q31 12 65 50q34 39 50 97q17 62 17 124q0 64 -15 118q-15 55 -41 91q-27 37 -63 56q-37 20 -79 20q-32 0 -67 -13q-33 -13 -66 -50q-34 -39 -50 -97q-17 -63 -17 -125z" />
<glyph unicode="&#x26;" horiz-adv-x="1456" d="M131 383q0 57 25 130q23 69 89 136q65 67 150 107q-59 68 -88 138q-28 68 -28 144q0 160 111 260q112 101 284 101q168 0 273 -96t128 -265l-147 -28q-12 129 -81 192q-70 64 -173 64q-50 0 -107 -21t-97 -77t-40 -132q0 -95 67 -182q65 -84 230 -219l324 -270 q49 107 49 243v88h139v-88q0 -192 -78 -338l244 -202l-92 -109l-232 197q-85 -91 -198 -136q-118 -47 -244 -47q-111 0 -206 30q-96 31 -163 84q-67 54 -103 130q-36 77 -36 166zM283 383q0 -123 98 -199q97 -75 258 -75q94 0 180 35q89 36 152 104l-363 307l-123 104 q-94 -43 -148 -115t-54 -161z" />
<glyph unicode="'" horiz-adv-x="385" d="M113 803v569h159v-569h-159z" />
<glyph unicode="(" horiz-adv-x="722" d="M113 686q0 497 387 854l110 -98q-136 -134 -210 -268q-74 -133 -97 -262q-22 -123 -22 -226q0 -216 74 -397q75 -182 255 -361l-110 -96q-387 357 -387 854z" />
<glyph unicode=")" horiz-adv-x="722" d="M113 -72q180 179 255 361q74 181 74 397q0 103 -22 226q-23 129 -97 262q-74 134 -210 268l110 98q387 -357 387 -854t-387 -854z" />
<glyph unicode="*" horiz-adv-x="874" d="M86 973l246 141l-246 141l53 91l242 -140v269h113v-269l241 140l53 -91l-245 -141l245 -141l-53 -90l-241 139v-270h-113v270l-242 -139z" />
<glyph unicode="+" horiz-adv-x="1187" d="M143 555v139h381v385h140v-385h380v-139h-380v-385h-140v385h-381z" />
<glyph unicode="," horiz-adv-x="430" d="M31 -270l135 538h184v-4l-196 -534h-123z" />
<glyph unicode="-" horiz-adv-x="907" d="M123 455v137h661v-137h-661z" />
<glyph unicode="." horiz-adv-x="417" d="M102 96q0 40 31 73q30 32 76 32t76 -32q30 -31 30 -73t-30 -72t-76 -30t-76 30q-31 31 -31 72z" />
<glyph unicode="/" horiz-adv-x="753" d="M16 -147l590 1665h133l-589 -1665h-134z" />
<glyph unicode="0" horiz-adv-x="1361" d="M113 686q0 154 41 288q41 135 116 227q78 97 182 147q105 51 230 51t230 -51t181 -147q74 -93 115 -227t41 -288t-41 -288t-115 -227q-75 -95 -181 -146q-107 -52 -230 -52t-230 52q-105 51 -182 146q-75 92 -116 227q-41 134 -41 288zM276 686q0 -121 29 -226 q28 -100 82 -178q53 -76 129 -116q77 -41 166 -41q66 0 135 27q72 28 136 102q68 79 100 192t32 240q0 124 -28 227t-82 180q-52 74 -129 115t-164 41q-68 0 -136 -26q-72 -28 -137 -103q-68 -79 -100 -193q-33 -118 -33 -241z" />
<glyph unicode="1" horiz-adv-x="727" d="M25 973v149l424 250h100v-1372h-158v1178z" />
<glyph unicode="2" horiz-adv-x="1054" d="M55 961q7 198 135 318t330 120q74 0 152 -21q81 -22 152 -76q74 -56 112 -144q37 -86 37 -179q0 -75 -27 -155q-27 -79 -95 -162q-67 -82 -200 -207l-329 -308h665v-147h-924v104l490 457q120 110 159 155q52 60 78 120q27 63 27 141q0 125 -83 203q-81 77 -216 77 q-139 0 -223 -86q-76 -79 -88 -210h-152z" />
<glyph unicode="3" horiz-adv-x="1200" d="M115 420h154q18 -133 100 -213q91 -90 245 -90q143 0 231 76q89 77 89 198q0 113 -81 176q-82 64 -224 64h-191v141h180q60 0 128 20q67 20 113 72t46 135q0 116 -82 186t-217 70q-106 0 -174 -43q-69 -43 -106 -112q-32 -60 -41 -133h-152q7 116 69 222q61 105 170 157 q111 53 236 53q98 0 182 -29q80 -28 142 -82q59 -52 91 -128t32 -161q0 -105 -57 -185t-150 -112q108 -30 171 -112q62 -81 62 -197q0 -95 -33 -170q-34 -77 -97 -134q-62 -56 -148 -86q-85 -30 -189 -30q-214 0 -351 123q-136 123 -148 324zM269 420z" />
<glyph unicode="4" horiz-adv-x="1269" d="M72 330v155q112 163 291 385t302 362l123 140h205v-887h213v-155h-213v-330h-157v330h-764zM248 485h588v717q-15 -16 -41.5 -43.5t-102.5 -111.5t-145.5 -165.5t-154 -192t-144.5 -204.5z" />
<glyph unicode="5" horiz-adv-x="1153" d="M104 444h157q4 -81 38 -149q39 -78 116 -126q41 -26 77.5 -37t89.5 -11q174 0 256 101q69 85 69 235q0 72 -17.5 121.5t-65.5 88.5q-56 45 -105 61.5t-121 16.5q-60 0 -111 -13t-87.5 -37t-57.5 -42t-43 -44t-23 -27h-151l59 790h824v-145h-670l-33 -439q5 3 35.5 24.5 t47 30t51 22.5t77 20t94.5 6q74 0 153 -18t152 -70q74 -53 110 -140t36 -204q0 -209 -113 -341q-125 -145 -368 -145q-83 0 -174 32t-158 93q-68 62 -106 151q-38 90 -38 195z" />
<glyph unicode="6" horiz-adv-x="1247" d="M113 649q0 408 186 600q68 70 162 110q93 40 201 40q162 0 278 -79q118 -80 158 -222h-167q-29 70 -92 110q-76 47 -184 47q-76 0 -141 -28t-111 -80q-37 -42 -74 -115q-36 -72 -51 -169q-13 -83 -13 -154q0 -27 1 -41q23 45 78 98q53 52 141 86q90 35 181 35 q75 0 159 -23q83 -22 159 -84q77 -62 114 -155t37 -189q0 -98 -34 -182q-35 -86 -99 -149q-64 -62 -154 -97q-91 -35 -195 -35q-252 0 -397 180q-143 177 -143 496zM322 432q0 -85 38 -151q39 -67 114 -114q74 -46 177 -46q141 0 232 91q92 92 92 226t-92 224 q-91 90 -232 90q-89 0 -169 -42t-120 -120q-40 -77 -40 -158z" />
<glyph unicode="7" horiz-adv-x="1013" d="M47 1227v145h930v-110l-537 -1262h-178l537 1227h-752z" />
<glyph unicode="8" horiz-adv-x="1183" d="M88 363q0 82 43 158q44 77 112 120t142 61q-68 21 -127 64t-95 115t-36 155q0 161 128 262t339 101q209 0 337 -101t128 -262q0 -110 -67 -203q-67 -92 -193 -131q149 -39 223 -135q74 -97 74 -204q0 -106 -62 -200t-182 -141q-124 -49 -258 -49q-107 0 -205 28 q-93 27 -162 80q-66 52 -103 125q-36 72 -36 157zM266 369q0 -87 53 -151q52 -62 132 -84q78 -21 141 -21q68 0 143 23q79 24 131 85q54 63 54 150q0 113 -91 186q-90 72 -237 72q-146 0 -236 -72t-90 -188zM287 1018q0 -77 46 -132q48 -58 122 -81q75 -23 137 -23 q136 0 222 68q85 67 85 176q0 110 -89 175t-218 65q-59 0 -127 -20q-67 -20 -107 -58q-41 -40 -56 -81q-15 -42 -15 -89z" />
<glyph unicode="9" horiz-adv-x="1247" d="M113 938q0 97 34 181q33 82 99 148q62 62 153 97t195 35q90 0 174 -26q79 -24 146 -76q66 -51 118 -135q55 -89 78 -204q25 -123 25 -235q0 -407 -187 -600q-68 -70 -162 -110q-93 -40 -200 -40q-161 0 -279 80q-116 79 -155 223h165q27 -69 93 -111q76 -48 182 -48 q78 0 140 29q67 31 112 79q40 44 75 115q36 72 51 168q12 77 12 154q0 29 -1 43q-52 -99 -164 -159q-113 -61 -235 -61q-106 0 -193 34q-89 35 -149 95q-62 62 -95 145q-32 80 -32 179zM274 936q0 -134 93 -225q91 -90 231 -90q144 0 237 94q93 95 93 225q0 49 -18 103 q-19 56 -58 101q-40 46 -106 78q-63 31 -148 31q-69 0 -144 -30q-74 -30 -127 -110t-53 -177z" />
<glyph unicode=":" horiz-adv-x="417" d="M102 96q0 40 31 73q30 32 76 32t76 -32q30 -31 30 -73t-30 -72t-76 -30t-76 30q-31 31 -31 72zM102 842q0 39 31 72q30 32 76 32t76 -32t30 -72q0 -43 -30 -73t-76 -30t-76 30q-31 31 -31 73z" />
<glyph unicode=";" horiz-adv-x="473" d="M31 -270l135 538h184v-4l-196 -534h-123zM158 842q0 40 30 72t76 32t76 -32q31 -33 31 -72q0 -42 -31 -73q-30 -30 -76 -30t-76 30t-30 73z" />
<glyph unicode="&#x3c;" horiz-adv-x="894" d="M66 571v156l749 328v-168l-561 -238l561 -239v-164z" />
<glyph unicode="=" horiz-adv-x="1187" d="M143 389v139h901v-139h-901zM143 776v139h901v-139h-901z" />
<glyph unicode="&#x3e;" horiz-adv-x="894" d="M82 246v164l561 239l-561 238v168l752 -328v-156z" />
<glyph unicode="?" horiz-adv-x="1069" d="M72 965q1 66 26 140q24 72 89 146q65 73 162 111q96 37 198 37q204 0 331 -119q126 -118 126 -309q0 -81 -38 -169q-37 -86 -139 -153q-23 -15 -86.5 -34t-105 -43t-41.5 -62v-96h-145v98q0 28 7 52.5t16 42t26.5 33.5t30.5 25t37 19.5t36.5 15t37.5 12t33 10.5 q74 24 126 92q51 66 51 157q0 129 -84 208q-82 78 -219 78q-139 0 -226 -88q-48 -49 -70.5 -92.5t-27.5 -111.5h-151zM414 96q0 42 30 73q30 32 76 32t76 -32q31 -33 31 -73q0 -41 -31 -72q-30 -30 -76 -30t-76 30t-30 72z" />
<glyph unicode="@" horiz-adv-x="1964" d="M133 569q0 174 65 328q65 155 181 266q117 113 274 174q159 62 336 62q80 0 188 -20q110 -20 214 -71q111 -54 194 -131q88 -82 145 -181q58 -101 79 -201q22 -105 22 -181q0 -75 -19 -168q-17 -86 -59 -158q-41 -72 -107 -112q-67 -41 -155 -41q-93 0 -157 44 q-62 43 -79 120q-52 -75 -133 -115q-84 -41 -180 -41q-104 0 -205 52q-99 51 -151 152q-54 105 -54 216q0 68 22 143q20 70 72 134q48 60 130 103q80 42 184 42q95 0 177 -41q80 -40 132 -113v138h109v-604q0 -61 42 -98q43 -38 105 -38q66 0 117 51q48 48 76 139 q26 85 26 191q0 151 -56 276q-58 129 -157 221q-102 94 -235 143q-136 50 -287 50q-156 0 -294 -54q-136 -53 -239 -153q-99 -96 -158 -234q-56 -131 -56 -288q0 -155 56 -288q57 -135 156 -234q98 -98 232 -152q136 -55 279 -55q121 0 258 38q133 37 231 106l55 -88 q-99 -71 -252 -115q-150 -43 -290 -43q-169 0 -321 61q-151 61 -268 173q-114 110 -180 267q-65 156 -65 328zM657 565q0 -88 40 -164q40 -75 112 -113q73 -38 145 -38q91 0 157 45t102 114t36 156q0 137 -86 223t-209 86q-76 0 -145 -36q-72 -37 -112 -112 q-40 -74 -40 -161z" />
<glyph unicode="A" horiz-adv-x="1419" d="M20 0l615 1372h149l615 -1372h-174l-154 348h-723l-153 -348h-175zM412 494h596l-297 677z" />
<glyph unicode="B" horiz-adv-x="1368" d="M180 0v1372h631q192 0 299 -98q109 -100 109 -262q0 -92 -41 -165q-41 -72 -95 -105q-51 -31 -96 -37v-7q116 -15 196 -100q81 -86 81 -225q0 -166 -113 -270q-112 -103 -313 -103h-658zM342 139h481q66 0 129 24q64 25 106 84q42 60 42 140q0 107 -78 173 q-79 67 -197 67h-483v-488zM342 758h467q55 0 114 22q60 23 101 83q41 61 41 141q0 47 -24 101q-24 53 -90 91q-65 37 -154 37h-455v-475z" />
<glyph unicode="C" horiz-adv-x="1591" d="M113 686q0 146 54 277t152 229q99 99 230 153t276 54q237 0 413 -124q178 -126 241 -331h-156q-12 39 -28.5 68.5t-45 56.5t-48 41.5t-63.5 44.5q-134 92 -313 92q-114 0 -213 -43t-176 -120q-76 -76 -118 -180t-42 -218t42 -218t118 -180q78 -78 177 -120 q101 -43 212 -43q180 0 313 92q78 54 119.5 99.5t65.5 121.5h156q-63 -212 -241 -339q-177 -126 -413 -126q-143 0 -276 55t-230 152t-152 230q-54 130 -54 276z" />
<glyph unicode="D" horiz-adv-x="1507" d="M180 0v1372h455q174 0 317 -52q142 -52 242 -144q97 -89 149 -220q52 -130 52 -270q0 -141 -52 -269t-149 -219q-101 -94 -242 -146q-143 -52 -317 -52h-455zM342 147h291q138 0 252 41q110 40 189 114q76 71 117 172q40 98 40 212t-40 212q-41 100 -117 173 q-78 75 -189 115q-114 41 -252 41h-291v-1080z" />
<glyph unicode="E" horiz-adv-x="1304" d="M180 0v1372h1000v-145h-838v-465h778v-146h-778v-469h840v-147h-1002z" />
<glyph unicode="F" horiz-adv-x="1208" d="M180 0v1372h983v-145h-821v-479h750v-146h-750v-602h-162z" />
<glyph unicode="G" horiz-adv-x="1628" d="M113 686q0 146 54 277t152 229q99 99 230 153t274 54q224 0 400 -106q162 -98 247 -312h-165q-17 35 -31.5 55.5t-47.5 55.5q-63 68 -173 112q-107 43 -230 43q-111 0 -212 -43q-100 -43 -176 -120q-75 -76 -117 -180t-42 -218q0 -116 43 -218q44 -105 119 -180 q77 -77 178 -120t215 -43q107 0 199 36q96 38 162 101q70 67 113 154t55 190h-606v148h759l3 -70q0 -142 -51 -276q-49 -130 -142 -229q-90 -96 -220 -151t-276 -55q-143 0 -277 55t-231 152t-152 230q-54 130 -54 276z" />
<glyph unicode="H" horiz-adv-x="1507" d="M180 0v1372h162v-608h823v608h162v-1372h-162v618h-823v-618h-162z" />
<glyph unicode="I" horiz-adv-x="520" d="M180 0v1372h162v-1372h-162z" />
<glyph unicode="J" horiz-adv-x="1218" d="M49 416h154q8 -69 33 -111.5t77 -93.5q91 -90 236 -90q154 0 250 106q96 107 96 273v872h162v-872q0 -80 -25 -174q-24 -91 -92 -178q-68 -88 -174 -131q-108 -44 -217 -44q-203 0 -337 122t-163 321z" />
<glyph unicode="K" horiz-adv-x="1441" d="M180 0v1372h162v-868l799 868h188l-543 -588l625 -784h-205l-528 668l-336 -363v-305h-162z" />
<glyph unicode="L" horiz-adv-x="1200" d="M180 0v1372h162v-1225h786v-147h-948z" />
<glyph unicode="M" horiz-adv-x="1839" d="M180 0v1372h142l598 -1130l598 1130h141v-1372h-156v1028l-540 -1028h-84l-543 1028v-1028h-156z" />
<glyph unicode="N" horiz-adv-x="1556" d="M180 0v1372h139l898 -1102v1102h161v-1372h-139l-897 1090v-1090h-162z" />
<glyph unicode="O" d="M113 686q0 144 54 276t151 229q95 95 229 152q132 56 276 56q143 0 275 -56t228 -152q99 -99 152 -229q54 -132 54 -276q0 -146 -54 -276t-152 -230q-96 -97 -228 -152q-133 -55 -275 -55q-143 0 -276 55q-134 55 -229 152q-96 98 -151 230q-54 130 -54 276zM276 686 q0 -82 28 -180q26 -92 105 -189q76 -94 189 -142q112 -48 225 -48q111 0 211 42q99 41 175 119q75 76 117 180t42 218t-42 218t-117 180q-75 77 -175 120q-99 43 -211 43q-111 0 -212 -43q-100 -43 -176 -120q-75 -76 -117 -180t-42 -218z" />
<glyph unicode="P" horiz-adv-x="1333" d="M180 0v1372h598q84 0 163 -20q83 -21 161 -78t116 -147q37 -87 37 -181q0 -95 -33 -171q-34 -79 -97 -136q-65 -59 -151 -88q-91 -31 -196 -31h-436v-520h-162zM342 666h436q148 0 232 77q86 78 86 203t-86 203q-85 78 -232 78h-436v-561z" />
<glyph unicode="Q" d="M113 686q0 144 54 276t151 229q95 95 229 152q132 56 276 56q143 0 275 -56t228 -152q99 -99 152 -229q54 -132 54 -276q0 -176 -81 -332t-216 -252l369 -450h-224l-299 368q-124 -47 -258 -47q-143 0 -276 55q-134 55 -229 152q-96 98 -151 230q-54 130 -54 276z M276 686q0 -82 28 -180q26 -92 105 -189q76 -94 189 -142q112 -48 225 -48q111 0 211 42q99 41 175 119q75 76 117 180t42 218t-42 218t-117 180q-75 77 -175 120q-99 43 -211 43q-111 0 -212 -43q-100 -43 -176 -120q-75 -76 -117 -180t-42 -218z" />
<glyph unicode="R" horiz-adv-x="1372" d="M180 0v1372h635q98 0 181 -27q84 -27 144 -80t92 -125q32 -73 32 -159q0 -60 -22 -131q-20 -65 -75 -126q-52 -58 -141 -97q-88 -39 -211 -39h-24l530 -588h-203l-524 588h-252v-588h-162zM342 735h473q128 0 208 68q79 67 79 178t-79 178q-80 68 -208 68h-473v-492z" />
<glyph unicode="S" horiz-adv-x="1284" d="M106 383h170q10 -65 39.5 -102.5t92.5 -83.5q109 -80 270 -80q155 0 244 70q90 70 90 186q0 91 -54 140q-52 48 -170 75l-309 67q-329 73 -329 351q0 87 34 158t100 125q65 53 155 81q93 29 198 29q202 0 341 -104q135 -101 173 -289h-162q-8 41 -25 69.5t-52 66.5 q-61 67 -137 91q-77 24 -142 24q-66 0 -138 -23q-75 -24 -124 -83t-49 -141q0 -86 53 -136q50 -48 153 -69l299 -68q78 -17 153 -51q84 -38 138 -113q56 -77 56 -192q0 -65 -25 -138q-24 -70 -84 -130q-59 -59 -160 -100q-99 -40 -241 -40q-103 0 -204 28q-93 26 -172 81 q-75 52 -122 130q-48 80 -60 171z" />
<glyph unicode="T" horiz-adv-x="1284" d="M51 1227v145h1182v-145h-508v-1227h-164v1227h-510z" />
<glyph unicode="U" horiz-adv-x="1476" d="M164 600v772h162v-772q0 -206 112 -338.5t303 -132.5t300.5 133t109.5 338v772h162v-772q0 -214 -90.5 -364.5t-249.5 -217.5q-107 -45 -232 -45q-203 0 -340 102t-196 271q-41 118 -41 254z" />
<glyph unicode="V" horiz-adv-x="1425" d="M37 1372h176l500 -1151l499 1151h177l-598 -1372h-156z" />
<glyph unicode="W" horiz-adv-x="1951" d="M37 1372h168l342 -1124l350 1124h158l350 -1124l342 1124h170l-422 -1372h-170l-348 1114l-350 -1114h-168z" />
<glyph unicode="X" horiz-adv-x="1294" d="M37 0l489 690l-479 682h197l403 -577l404 577h198l-481 -682l492 -690h-199l-414 586l-411 -586h-199z" />
<glyph unicode="Y" horiz-adv-x="1374" d="M37 1372h180l467 -731l467 731h186l-571 -891v-481h-162v479z" />
<glyph unicode="Z" horiz-adv-x="1282" d="M121 0v102l840 1131h-816v139h1024v-117l-821 -1116h830v-139h-1057z" />
<glyph unicode="[" horiz-adv-x="800" d="M180 -168v1686h508v-138h-356v-1413h356v-135h-508z" />
<glyph unicode="\" horiz-adv-x="753" d="M16 1518h134l589 -1665h-133z" />
<glyph unicode="]" horiz-adv-x="800" d="M113 -33h356v1413h-356v138h510v-1686h-510v135z" />
<glyph unicode="^" horiz-adv-x="806" d="M51 934l297 438h111l297 -438h-144l-209 303l-208 -303h-144z" />
<glyph unicode="_" horiz-adv-x="1034" d="M41 -115h952v-133h-952v133z" />
<glyph unicode="`" horiz-adv-x="1228" d="M348 1448h182l162 -287h-135z" />
<glyph unicode="a" horiz-adv-x="1116" d="M88 283q0 141 107 228t299 87h340v47q0 57 -25 118q-24 58 -86 96t-148 38q-113 0 -190 -54q-53 -37 -66 -54q-19 -25 -26 -62h-150q24 136 143 222q118 85 281 85q190 0 304 -99t114 -280v-655h-151v154q-60 -81 -159 -131q-98 -50 -220 -50q-163 0 -266 86 q-101 85 -101 224zM238 285q0 -37 21 -80t81 -73t137 -30q69 0 154 31q81 30 142 110q61 81 61 179v53h-342q-119 0 -187 -53q-67 -52 -67 -137z" />
<glyph unicode="b" horiz-adv-x="1329" d="M180 0v1475h156v-627q66 87 173 137q104 49 228 49q98 0 191 -38t163 -108q68 -68 110 -170q40 -98 40 -214t-40 -214q-42 -102 -110 -170q-71 -71 -163 -109q-93 -38 -191 -38q-122 0 -228 50q-107 50 -173 137v-160h-156zM336 504q0 -107 52 -201q53 -95 143 -142 q91 -48 182 -48q160 0 268 108q109 109 109 283q0 63 -20 134t-65 126q-48 58 -121 95q-76 38 -171 38q-67 0 -139 -28q-69 -27 -121 -79q-54 -54 -85 -126q-32 -75 -32 -160z" />
<glyph unicode="c" horiz-adv-x="1179" d="M88 504q0 86 24 164q24 79 74 152q51 74 137 129q89 56 163 70q80 15 128 15q86 0 179 -29q98 -30 182 -112q76 -74 119 -219h-156q-16 53 -42.5 86t-75.5 67q-93 64 -206 64q-96 0 -186 -48q-89 -47 -139 -142q-49 -92 -49 -197q0 -66 19 -130q19 -66 66 -123t119 -94 q74 -38 170 -38q72 0 135 22q62 22 118 73q30 27 46 50t29 62l150 2q-47 -175 -175 -263q-134 -92 -303 -92q-103 0 -200 38q-95 37 -170 109t-115 169q-41 100 -41 215z" />
<glyph unicode="d" horiz-adv-x="1329" d="M88 504q0 116 40 214q41 100 111 170q71 70 162 108q93 38 191 38q124 0 228 -49q107 -50 173 -137v627h156v-1475h-156v160q-66 -87 -173 -137q-106 -50 -228 -50q-98 0 -191 38q-90 37 -162 109q-70 70 -111 170q-40 98 -40 214zM240 504q0 -175 108 -283t268 -108 q90 0 182 48q90 47 143 142q52 94 52 201q0 63 -21 132q-20 67 -70 126q-48 57 -122 96t-164 39q-57 0 -120 -18q-62 -18 -120 -65q-55 -45 -96 -124q-40 -77 -40 -186z" />
<glyph unicode="e" horiz-adv-x="1193" d="M88 502q0 83 28 178q27 92 102 180q74 88 182 131q107 43 210 43q102 0 190 -36q89 -36 156 -103q68 -68 107 -162q38 -93 43 -203v-57h-866q5 -66 26 -125q23 -64 69 -116q47 -53 115 -87t150 -34q116 0 204 52q37 22 54 34t38.5 37t37.5 61h149q-61 -158 -185 -239 q-127 -83 -298 -83q-97 0 -191 38q-92 37 -166 108t-114 169q-41 100 -41 214zM246 590h702q-12 91 -60 164q-48 74 -124 108q-78 35 -154 35q-58 0 -137 -27t-145 -100q-65 -73 -82 -180z" />
<glyph unicode="f" horiz-adv-x="729" d="M41 879v131h176v149q0 161 94 255q95 95 252 95q93 0 164 -36l-39 -127q-56 22 -115 22q-89 0 -145 -57q-55 -56 -55 -152v-149h366v-131h-366v-879h-156v879h-176z" />
<glyph unicode="g" horiz-adv-x="1296" d="M88 549q0 103 40 192t110 156q67 64 159 101q90 36 189 36q124 0 220 -43q98 -44 159 -121v140h151l2 -928q-1 -219 -140 -345q-138 -126 -368 -126q-136 0 -241 39t-165 102q-86 90 -110 191h154q25 -48 57.5 -77.5t83.5 -60.5q86 -53 221 -53q159 0 257 95t98 255v123 q-61 -79 -159 -123q-96 -43 -220 -43q-99 0 -189 36q-88 35 -159 103q-70 67 -110 157t-40 194zM240 549q0 -99 43 -175q44 -78 127 -128q84 -51 198 -51q31 0 77 8q44 8 89 30t89 65q45 44 73 108q29 67 29 143q0 78 -36 159q-35 80 -125 136q-88 55 -196 55 q-113 0 -198 -50q-83 -49 -127 -126q-43 -76 -43 -174z" />
<glyph unicode="h" horiz-adv-x="1280" d="M180 0v1475h156v-633q63 93 159 142q98 50 222 50q69 0 136 -20q70 -21 130 -72q58 -49 99 -136q40 -84 40 -202v-604h-155v575q0 142 -78 229t-203 87q-160 0 -255 -107t-95 -299v-485h-156z" />
<glyph unicode="i" horiz-adv-x="571" d="M180 1257q0 40 31 71q30 30 74 30q45 0 75 -30q31 -31 31 -71q0 -41 -31 -72q-30 -30 -75 -30t-75 30t-30 72zM207 0v1010h158v-1010h-158z" />
<glyph unicode="j" horiz-adv-x="583" d="M2 -199q50 -22 96 -22q59 0 97 35q36 33 36 90v1106h158v-1125q0 -55 -23 -113q-25 -62 -86 -101q-62 -40 -145 -40q-11 0 -21 1t-17 1.5t-16.5 3t-13.5 3.5t-15.5 5t-14.5 5.5t-17 7.5t-18 8v135zM201 1315q0 42 31 73t77 31t76 -31q31 -33 31 -73q0 -43 -31 -74 t-76 -31q-48 0 -78 30t-30 75z" />
<glyph unicode="k" horiz-adv-x="1226" d="M180 0v1475h156v-1045l563 580h188l-403 -424l522 -586h-198l-430 475l-242 -254v-221h-156z" />
<glyph unicode="l" horiz-adv-x="516" d="M180 0v1475h156v-1475h-156z" />
<glyph unicode="m" horiz-adv-x="1937" d="M180 0v1010h156v-154q57 86 143 131q89 47 201 47q116 0 208 -55t136 -150q61 95 158 150q98 55 223 55q162 0 269 -106q108 -107 108 -275v-653h-156v627q0 63 -25 122t-90 101q-64 41 -145 41q-141 0 -225 -99t-84 -276v-516h-156v627q0 118 -73 191t-185 73 q-141 0 -224 -99q-83 -100 -83 -276v-516h-156z" />
<glyph unicode="n" horiz-adv-x="1277" d="M180 0v1010h156v-168q63 93 159 142q98 50 222 50q69 0 136 -20q70 -21 130 -72q58 -49 99 -136q40 -84 40 -202v-604h-155v575q0 142 -78 229t-203 87q-160 0 -255 -107t-95 -299v-485h-156z" />
<glyph unicode="o" horiz-adv-x="1245" d="M88 506q0 81 28 174q27 90 102 177q76 88 185 131q112 44 222 44q107 0 206 -39q101 -40 173 -109q74 -70 114 -168q41 -99 41 -210t-41 -211q-40 -97 -114 -170q-73 -72 -173 -111q-99 -39 -206 -39q-110 0 -209 39q-98 39 -172 111q-76 74 -115 170q-41 100 -41 211z M240 506q0 -106 51 -201q50 -93 144 -143q92 -49 190 -49q77 0 145 28q72 30 123 81q53 53 83 126t30 158t-30 157q-30 71 -83 123q-52 51 -123 80q-70 29 -145 29q-73 0 -139 -25q-61 -23 -112 -65q-49 -40 -92 -118q-42 -77 -42 -181z" />
<glyph unicode="p" horiz-adv-x="1329" d="M180 -348v1358h156v-162q66 87 173 137q104 49 228 49q98 0 191 -38t163 -108q68 -68 110 -170q40 -98 40 -214t-40 -214q-42 -102 -110 -170q-71 -71 -163 -109q-93 -38 -191 -38q-122 0 -228 50q-107 50 -173 137v-508h-156zM336 504q0 -107 52 -201q53 -95 143 -142 q91 -48 182 -48q160 0 268 108q109 109 109 283q0 63 -20 134t-65 126q-48 58 -121 95q-76 38 -171 38q-67 0 -139 -28q-69 -27 -121 -79q-54 -54 -85 -126q-32 -75 -32 -160z" />
<glyph unicode="q" horiz-adv-x="1329" d="M88 504q0 116 40 214q41 100 111 170q71 70 162 108q93 38 191 38q124 0 228 -49q107 -50 173 -137v162h156v-1358h-156v508q-66 -87 -173 -137q-106 -50 -228 -50q-98 0 -191 38q-90 37 -162 109q-70 70 -111 170q-40 98 -40 214zM240 504q0 -175 108 -283t268 -108 q90 0 182 48q90 47 143 142q52 94 52 201q0 63 -21 132q-20 67 -70 126q-48 57 -122 96t-164 39q-57 0 -120 -18q-62 -18 -120 -65q-55 -45 -96 -124q-40 -77 -40 -186z" />
<glyph unicode="r" horiz-adv-x="843" d="M180 0v1010h158v-248q67 120 169 188q105 70 236 70q42 0 72 -8l-12 -150l-60 2q-75 0 -144 -23q-73 -25 -130 -81q-55 -55 -94 -150q-37 -90 -37 -221v-389h-158z" />
<glyph unicode="s" horiz-adv-x="1036" d="M94 272h156q6 -24 30.5 -57t62.5 -58q84 -55 204 -55q107 0 175 48q66 46 66 124q0 60 -43 94t-122 52l-232 51q-128 27 -194 92q-68 66 -68 166q0 137 105 221t278 84q166 0 274 -78q110 -79 138 -202h-150q-19 53 -87 102q-71 51 -179 51q-50 0 -102 -15 q-53 -15 -88 -56q-33 -39 -33 -95q0 -42 28 -79t125 -60l244 -53q84 -18 147 -59q62 -41 87 -94q26 -55 26 -111q0 -146 -112 -229t-295 -83q-179 0 -301 78t-140 221z" />
<glyph unicode="t" horiz-adv-x="806" d="M0 879v131h219v321h158v-321h358v-131h-358v-553q0 -97 51 -151t135 -54q42 0 87 17q50 19 85 44v-149q-58 -38 -91 -49t-91 -11q-153 0 -244 89q-90 89 -90 253v564h-219z" />
<glyph unicode="u" horiz-adv-x="1277" d="M156 406v604h157v-576q0 -141 77 -227t202 -86q160 0 255 105q95 106 95 298v486h158v-1008h-158v164q-62 -91 -160 -140q-102 -51 -221 -51q-65 0 -136 21q-70 21 -130 72q-58 49 -99 136q-40 84 -40 202z" />
<glyph unicode="v" horiz-adv-x="1136" d="M37 1010h170l362 -826l361 826h170l-447 -1010h-170z" />
<glyph unicode="w" horiz-adv-x="1574" d="M37 1010h158l260 -783l270 783h125l270 -783l260 783h158l-340 -1014h-145l-265 766l-266 -766h-145z" />
<glyph unicode="x" horiz-adv-x="1183" d="M92 0l385 498l-385 512h189l311 -416l311 416h189l-385 -512l385 -498h-189l-311 403l-311 -403h-189z" />
<glyph unicode="y" horiz-adv-x="1153" d="M37 1010h176l360 -807l369 807h174l-618 -1358h-174l165 362z" />
<glyph unicode="z" horiz-adv-x="1036" d="M82 0v106l657 773h-639v131h834v-109l-658 -770h678v-131h-872z" />
<glyph unicode="{" horiz-adv-x="880" d="M92 614v121l47 10q79 10 127 55q47 44 47 118v342q0 113 75 185q76 73 192 73h188v-136h-170q-59 0 -96 -37t-37 -100v-344q0 -81 -37 -140q-38 -60 -100 -87q63 -28 100 -88q37 -59 37 -137v-345q0 -62 37 -100q38 -39 96 -39h170v-133h-188q-56 0 -119 24 q-64 25 -106 87q-42 63 -42 147v342q0 37 -16 73q-16 37 -58 64q-43 27 -100 35z" />
<glyph unicode="|" horiz-adv-x="512" d="M180 -147v1665h152v-1665h-152z" />
<glyph unicode="}" horiz-adv-x="880" d="M113 -35h170q59 0 96 39q37 38 37 100v345q0 78 37 137q37 60 100 88q-62 27 -100 87q-37 59 -37 140v344q0 63 -37 100t-96 37h-170v136h188q116 0 192 -73q74 -71 74 -185v-342q0 -74 47 -118q48 -45 127 -55l47 -10v-121l-47 -10q-56 -7 -99 -35q-42 -27 -58 -64 q-17 -39 -17 -73v-342q0 -54 -24 -115t-90 -102q-67 -41 -152 -41h-188v133z" />
<glyph unicode="~" horiz-adv-x="974" d="M92 487q0 84 29 142t81 89q53 32 117 32q28 0 60 -8q35 -9 56 -20q27 -14 91 -58q67 -46 115 -46q51 0 81 36q30 35 28 94h137q0 -85 -31 -145q-29 -57 -84 -90q-53 -32 -121 -32q-52 0 -92 17q-42 18 -108 65q-68 49 -119 49q-54 0 -84 -34q-27 -30 -27 -78v-13h-129z " />
<glyph unicode="&#xa1;" horiz-adv-x="550" d="M170 930q0 41 31 72q30 30 75 30q46 0 76 -30q31 -31 31 -72t-31 -72t-76 -31q-44 0 -75 31t-31 72zM193 -283l4 901h159l6 -901v-63h-169v63z" />
<glyph unicode="&#xa2;" horiz-adv-x="1179" d="M88 504q0 130 52 237q53 109 154 188q100 78 241 99v262h135v-258q152 -16 267 -105q116 -89 157 -229l-150 -45q-29 99 -104 160q-77 62 -174 74v-766q70 7 134 44q61 35 98 86q34 47 50 95l144 -39q-16 -56 -41 -98q-26 -45 -68 -90q-40 -43 -122 -87q-85 -46 -191 -57 v-241h-135v246q-141 21 -241 98q-101 77 -154 186q-52 107 -52 240zM240 504q0 -152 85 -253q85 -102 216 -126v760q-131 -24 -216 -129q-85 -104 -85 -252z" />
<glyph unicode="&#xa3;" horiz-adv-x="1146" d="M113 0h921v147h-585v410h356v145h-356v242q0 135 82 217t219 82q142 0 225 -86v192q-100 50 -225 50q-102 0 -187 -33t-147 -93q-60 -58 -95 -146q-34 -84 -34 -183v-242h-174v-145h174v-422l-174 -35v-100z" />
<glyph unicode="&#xa5;" horiz-adv-x="1363" d="M61 1372h181l438 -692l436 692h187l-476 -731h330v-123h-397v-153h397v-123h-397v-242h-162v242h-389v123h389v153h-389v123h321z" />
<glyph unicode="&#xa7;" horiz-adv-x="1089" d="M68 625q0 52 17 103q19 56 60 99q44 46 97 70q-41 41 -59 91q-17 47 -17 99q0 144 105 228t274 84q67 0 138 -18q73 -19 135 -65q64 -48 96 -122q33 -76 34 -150l-139 -28q-1 120 -71 188t-185 68q-48 0 -104 -18q-57 -19 -93 -63q-37 -46 -37 -108q0 -53 33 -95t107 -75 l303 -135q128 -55 187 -125t59 -170q0 -98 -50 -168q-51 -70 -122 -104q73 -79 73 -191q0 -88 -43 -155q-44 -68 -128 -111q-85 -43 -208 -43q-196 0 -307 99q-110 98 -110 262l137 28q4 -128 75 -197t199 -69q72 0 131 31q58 30 79 76q22 47 22 84q0 109 -140 172l-303 133 q-128 55 -187 125q-58 68 -58 170zM213 635q0 -57 37 -100q36 -42 129 -86l307 -140l41 -20q64 28 101 75q34 43 34 109q0 58 -37 101q-39 45 -129 88l-305 137l-45 22q-133 -57 -133 -186z" />
<glyph unicode="&#xa8;" horiz-adv-x="1228" d="M305 1286q0 40 31 73q30 32 76 32q44 0 76 -32t32 -73q0 -44 -32 -74q-31 -30 -76 -30q-46 0 -76 30q-31 31 -31 74zM711 1286q0 42 30 73q30 32 76 32q45 0 77 -32t32 -73q0 -44 -32 -74t-77 -30q-46 0 -76 30t-30 74z" />
<glyph unicode="&#xa9;" horiz-adv-x="1587" d="M80 682q0 153 55 285q55 133 154 229q102 99 229 150q132 53 273 53q140 0 272 -53q127 -51 229 -150q99 -96 154 -229q55 -132 55 -285q0 -152 -55 -281q-56 -132 -154 -227t-229 -148q-132 -53 -272 -53q-141 0 -273 53q-131 53 -229 148t-154 227q-55 129 -55 281z M164 684q0 -134 49 -250q49 -117 136 -202q86 -85 202 -132q115 -47 240 -47q124 0 239 47q116 47 202 132q87 85 136 202q49 116 49 250q0 135 -49 252q-51 121 -136 205q-88 87 -202 133q-115 47 -239 47q-125 0 -240 -47q-114 -46 -202 -133q-85 -84 -136 -205 q-49 -117 -49 -252zM416 686q0 65 20 128q21 66 69 123q46 55 125 95q76 39 173 39q141 0 243 -78q101 -77 119 -194l-108 -23q-10 38 -41 84q-30 45 -89 75t-124 30q-112 0 -192 -80q-79 -79 -79 -199q0 -122 79 -201t192 -79q91 0 163 54q73 55 91 140l108 -20 q-7 -44 -32 -98q-23 -50 -78 -96q-53 -44 -118 -65q-68 -22 -134 -22q-57 0 -122 18q-64 18 -123 65q-58 46 -100 123q-42 76 -42 181z" />
<glyph unicode="&#xaa;" horiz-adv-x="792" d="M104 891q0 65 44 115q43 48 112 67q71 19 131 19h187v36q0 70 -43 113t-115 43q-139 0 -172 -139l-107 24q11 50 41 100t93 80q61 29 139 29q126 0 204 -66t78 -190v-420h-118v80q-83 -96 -238 -96q-76 0 -134 33q-59 33 -80 81q-22 50 -22 91zM225 891q0 -54 38 -84 q39 -31 102 -31q43 0 93 18q52 19 85 63q35 47 35 104v51h-177q-83 0 -129 -33q-47 -33 -47 -88z" />
<glyph unicode="&#xab;" horiz-adv-x="849" d="M51 537l250 364h160l-250 -364l250 -365h-160zM389 537l250 364h160l-250 -364l250 -365h-160z" />
<glyph unicode="&#xad;" horiz-adv-x="907" d="M123 455v137h661v-137h-661z" />
<glyph unicode="&#xae;" horiz-adv-x="1024" d="M102 987q0 60 22 134q21 69 79 140q57 69 142 103q87 35 167 35q61 0 130 -21q73 -22 138 -76q70 -58 106 -143t36 -172q0 -106 -55 -207q-53 -98 -152 -150q-98 -52 -203 -52t-203 52q-99 52 -152 150q-55 101 -55 207zM162 987q0 -55 18 -115q17 -57 62 -111 q42 -51 112 -89q68 -37 158 -37q57 0 112 17q59 18 111 61q55 45 91 112q38 70 38 162q0 114 -59 201q-59 88 -140 122q-77 33 -153 33q-54 0 -111 -17q-60 -18 -111 -60q-52 -44 -90 -114q-38 -71 -38 -165zM367 805v387h170q66 0 109 -35q42 -35 42 -90q0 -47 -32 -82 q-33 -36 -81 -43l136 -137h-74l-129 133h-84v-133h-57zM424 991h111q41 0 69 22q27 21 27 54q0 32 -26 53q-25 21 -68 21h-113v-150z" />
<glyph unicode="&#xaf;" horiz-adv-x="1228" d="M324 1196v127h581v-127h-581z" />
<glyph unicode="&#xb0;" horiz-adv-x="833" d="M139 1126q0 57 28 122q27 63 98 107t153 44q51 0 117 -25q62 -24 112 -90q49 -65 49 -158q0 -56 -27 -119q-26 -61 -99 -106q-70 -43 -152 -43q-51 0 -117 25q-63 24 -113 89q-49 64 -49 154zM252 1128q0 -36 17 -74q18 -40 60 -67q40 -26 89 -26q28 0 67 15t69 57t30 95 q0 34 -18 75t-59 67q-40 26 -89 26q-29 0 -68 -15q-38 -14 -68 -57q-30 -42 -30 -96z" />
<glyph unicode="&#xb1;" horiz-adv-x="1187" d="M143 0v139h901v-139h-901zM143 668v139h381v364h140v-364h380v-139h-380v-344h-140v344h-381z" />
<glyph unicode="&#xb4;" horiz-adv-x="1228" d="M506 1161l164 287h182l-209 -287h-137z" />
<glyph unicode="&#xb6;" horiz-adv-x="1148" d="M41 999q0 180 109 277q108 96 290 96h256v-1372h-125v612h-102q-66 0 -138 18q-76 19 -145 68q-70 50 -108 133q-37 81 -37 168zM844 0v1372h125v-1372h-125z" />
<glyph unicode="&#xb7;" horiz-adv-x="417" d="M102 539q0 39 31 72q30 32 76 32t76 -32q30 -31 30 -72q0 -43 -30 -73t-76 -30t-76 30q-31 31 -31 73z" />
<glyph unicode="&#xb8;" horiz-adv-x="1228" d="M393 -348l207 348h121l-158 -348h-170z" />
<glyph unicode="&#xba;" horiz-adv-x="899" d="M96 1032q0 53 20 115q19 58 63 110q43 51 114 86q70 35 156 35q90 0 175 -43q86 -43 132 -126q47 -83 47 -177t-47 -177q-46 -83 -132 -126q-85 -43 -175 -43q-66 0 -133 25q-62 23 -113 71q-49 46 -78 112t-29 138zM217 1032q0 -72 41 -133q40 -59 94 -82q51 -22 97 -22 t99 22q55 23 95 82q41 61 41 133q0 47 -24 104t-82 95q-60 39 -129 39q-43 0 -97 -23t-94 -82q-41 -61 -41 -133z" />
<glyph unicode="&#xbb;" horiz-adv-x="849" d="M51 172l250 365l-250 364h160l250 -364l-250 -365h-160zM389 172l250 365l-250 364h160l250 -364l-250 -365h-160z" />
<glyph unicode="&#xbc;" horiz-adv-x="1437" d="M49 1110v127l211 135h78v-756h-119v598zM133 0l1026 1372h113l-1026 -1372h-113zM739 170v111l391 475h138v-488h118v-98h-118v-170h-113v170h-416zM856 268h299v361z" />
<glyph unicode="&#xbd;" horiz-adv-x="1591" d="M49 1110v127l211 135h78v-756h-119v598zM115 0l1026 1372h112l-1026 -1372h-112zM973 -2v80l287 246q81 69 111 110q32 44 32 96q0 62 -43 101q-44 39 -111 39q-73 0 -117 -48q-46 -50 -47 -128h-110q0 57 21.5 113.5t57.5 91.5q73 71 195 71q56 0 119 -21t107 -80 q43 -58 43 -139q0 -77 -45 -140q-41 -57 -138 -140l-172 -146h359v-106h-549z" />
<glyph unicode="&#xbe;" horiz-adv-x="1624" d="M59 887h105q1 -38 20 -81q18 -42 65 -69q45 -26 103 -26q72 0 118 39t46 96t-44 90q-43 33 -118 33h-75v86h67q71 0 114 31q44 32 44 83q0 56 -45 92q-44 35 -113 35q-74 0 -121 -44q-48 -44 -49 -119l-108 2q3 56 26 109t60 84q77 65 192 65q116 0 192 -62 q74 -61 74 -157q0 -112 -112 -158q58 -22 94 -67q35 -44 35 -105q0 -47 -26 -102q-26 -54 -94 -93q-69 -39 -157 -39q-55 0 -122 23q-65 22 -115 83q-24 29 -39.5 77.5t-16.5 93.5zM322 0l1026 1372h112l-1026 -1372h-112zM928 170v111l391 475h137v-488h119v-98h-119v-170 h-113v170h-415zM1044 268h299v361z" />
<glyph unicode="&#xbf;" horiz-adv-x="1069" d="M66 55q0 83 37 169t139 153q23 15 86.5 34t105 43t41.5 62v96h146v-98q0 -28 -7 -52.5t-16 -42t-26.5 -33.5t-31 -25t-37.5 -19.5t-36.5 -15t-37.5 -12t-33 -10.5q-74 -24 -126 -92q-51 -66 -51 -157q0 -129 84 -208q82 -78 219 -78q140 0 227 88q47 48 69.5 91.5 t27.5 112.5h151q-1 -66 -26 -140q-24 -72 -89 -146q-64 -73 -162 -111q-96 -37 -198 -37q-204 0 -331 119q-125 118 -125 309zM442 930q0 41 31 72q30 30 76 30t76 -30t30 -72t-30 -73q-30 -32 -76 -32t-76 32q-31 33 -31 73z" />
<glyph unicode="&#xc0;" horiz-adv-x="1419" d="M20 0l615 1372h149l615 -1372h-174l-154 348h-723l-153 -348h-175zM412 494h596l-297 677zM433 1808h182l162 -286h-135z" />
<glyph unicode="&#xc1;" horiz-adv-x="1419" d="M20 0l615 1372h149l615 -1372h-174l-154 348h-723l-153 -348h-175zM412 494h596l-297 677zM641 1522l164 286h182l-209 -286h-137z" />
<glyph unicode="&#xc2;" horiz-adv-x="1419" d="M20 0l615 1372h149l615 -1372h-174l-154 348h-723l-153 -348h-175zM396 1522l238 290h149l240 -290h-160l-153 190l-156 -190h-158zM412 494h596l-297 677z" />
<glyph unicode="&#xc3;" horiz-adv-x="1419" d="M20 0l615 1372h149l615 -1372h-174l-154 348h-723l-153 -348h-175zM402 1528q0 103 53 156t126 53q66 0 128 -43t86 -49q28 -7 35 -7q35 0 56 27q20 26 20 70h111q0 -57 -20 -108t-63 -78q-44 -27 -95 -27q-66 0 -128 43t-86 49t-36 6q-34 0 -55 -26t-21 -66h-111z M412 494h596l-297 677z" />
<glyph unicode="&#xc4;" horiz-adv-x="1419" d="M20 0l615 1372h149l615 -1372h-174l-154 348h-723l-153 -348h-175zM399 1626q0 40 31 73q30 32 76 32q45 0 77 -32q31 -31 31 -73q0 -44 -31 -74t-77 -30t-76 30q-31 31 -31 74zM412 494h596l-297 677zM805 1626q0 40 31 73q30 32 75 32t77 -32t32 -73q0 -44 -32 -74 t-77 -30t-75 30q-31 31 -31 74z" />
<glyph unicode="&#xc5;" horiz-adv-x="1419" d="M20 0l615 1372h149l615 -1372h-174l-154 348h-723l-153 -348h-175zM412 494h596l-297 677zM498 1592q0 41 20 87q21 48 74 83t117 35q41 0 91 -21q51 -22 86 -71q36 -51 36 -113t-36 -114q-34 -50 -86 -72q-49 -21 -91 -21q-41 0 -91 21q-49 21 -84 72q-36 52 -36 114z M594 1592q0 -45 34 -78t81 -33t81 33q33 32 33 78t-33 78q-34 33 -81 33t-81 -33t-34 -78z" />
<glyph unicode="&#xc6;" horiz-adv-x="2129" d="M20 0l984 1372h1042v-145h-838v-465h779v-146h-779v-469h840v-147h-1001v317h-615l-223 -317h-189zM535 463h512v727z" />
<glyph unicode="&#xc7;" horiz-adv-x="1591" d="M113 686q0 146 54 277t152 229q99 99 230 153t276 54q237 0 413 -124q178 -126 241 -331h-156q-12 39 -28.5 68.5t-45 56.5t-48 41.5t-63.5 44.5q-134 92 -313 92q-114 0 -213 -43t-176 -120q-76 -76 -118 -180t-42 -218t42 -218t118 -180q78 -78 177 -120 q101 -43 212 -43q180 0 313 92q78 54 119.5 99.5t65.5 121.5h156q-63 -212 -241 -339q-177 -126 -413 -126q-143 0 -276 55t-230 152t-152 230q-54 130 -54 276zM558 -363l207 348h121l-158 -348h-170z" />
<glyph unicode="&#xc8;" horiz-adv-x="1304" d="M180 0v1372h1000v-145h-838v-465h778v-146h-778v-469h840v-147h-1002zM403 1808h183l162 -286h-136z" />
<glyph unicode="&#xc9;" horiz-adv-x="1304" d="M180 0v1372h1000v-145h-838v-465h778v-146h-778v-469h840v-147h-1002zM611 1522l164 286h182l-208 -286h-138z" />
<glyph unicode="&#xca;" horiz-adv-x="1304" d="M180 0v1372h1000v-145h-838v-465h778v-146h-778v-469h840v-147h-1002zM367 1522l237 290h150l239 -290h-159l-154 190l-156 -190h-157z" />
<glyph unicode="&#xcb;" horiz-adv-x="1304" d="M180 0v1372h1000v-145h-838v-465h778v-146h-778v-469h840v-147h-1002zM370 1626q0 42 30 73q30 32 76 32q45 0 77 -32t32 -73q0 -44 -32 -74t-77 -30q-46 0 -76 30t-30 74zM775 1626q0 40 31 73q30 32 76 32q44 0 76 -32t32 -73q0 -44 -32 -74t-76 -30q-46 0 -76 30 q-31 31 -31 74z" />
<glyph unicode="&#xcc;" horiz-adv-x="520" d="M-15 1808h182l162 -286h-135zM180 0v1372h162v-1372h-162z" />
<glyph unicode="&#xcd;" horiz-adv-x="520" d="M180 0v1372h162v-1372h-162zM193 1522l163 286h183l-209 -286h-137z" />
<glyph unicode="&#xce;" horiz-adv-x="520" d="M-52 1522l237 290h150l239 -290h-159l-154 190l-156 -190h-157zM180 0v1372h162v-1372h-162z" />
<glyph unicode="&#xcf;" horiz-adv-x="520" d="M-49 1626q0 40 31 73q30 32 75 32t77 -32t32 -73q0 -44 -32 -74q-31 -30 -77 -30q-45 0 -75 30q-31 31 -31 74zM180 0v1372h162v-1372h-162zM356 1626q0 40 31 73q30 32 76 32q45 0 77 -32q31 -31 31 -73q0 -44 -31 -74q-32 -30 -77 -30q-46 0 -76 30q-31 31 -31 74z" />
<glyph unicode="&#xd0;" horiz-adv-x="1521" d="M61 618v146h154v608h455q174 0 317 -52q142 -52 242 -144q97 -89 149 -220q52 -130 52 -270q0 -141 -52 -269t-149 -219q-101 -94 -242 -146q-143 -52 -317 -52h-455v618h-154zM377 147h293q136 0 251 41q112 40 190 115q77 74 117 172t40 211q0 114 -40 212 q-41 100 -117 173q-78 75 -189 115q-114 41 -252 41h-293v-463h336v-146h-336v-471z" />
<glyph unicode="&#xd1;" horiz-adv-x="1556" d="M180 0v1372h139l898 -1102v1102h161v-1372h-139l-897 1090v-1090h-162zM472 1528q0 104 52 156q53 53 126 53q66 0 128 -43t86 -49q28 -7 36 -7q34 0 55 27t21 70h110q0 -60 -19 -108q-20 -51 -63 -78q-44 -27 -96 -27q-66 0 -128 43t-86 49t-36 6q-34 0 -55 -26 q-20 -24 -20 -66h-111z" />
<glyph unicode="&#xd2;" d="M113 686q0 144 54 276t151 229q95 95 229 152q132 56 276 56q143 0 275 -56t228 -152q99 -99 152 -229q54 -132 54 -276q0 -146 -54 -276t-152 -230q-96 -97 -228 -152q-133 -55 -275 -55q-143 0 -276 55q-134 55 -229 152q-96 98 -151 230q-54 130 -54 276zM276 686 q0 -82 28 -180q26 -92 105 -189q76 -94 189 -142q112 -48 225 -48q111 0 211 42q99 41 175 119q75 76 117 180t42 218t-42 218t-117 180q-75 77 -175 120q-99 43 -211 43q-111 0 -212 -43q-100 -43 -176 -120q-75 -76 -117 -180t-42 -218zM547 1808h182l162 -286h-135z" />
<glyph unicode="&#xd3;" d="M113 686q0 144 54 276t151 229q95 95 229 152q132 56 276 56q143 0 275 -56t228 -152q99 -99 152 -229q54 -132 54 -276q0 -146 -54 -276t-152 -230q-96 -97 -228 -152q-133 -55 -275 -55q-143 0 -276 55q-134 55 -229 152q-96 98 -151 230q-54 130 -54 276zM276 686 q0 -82 28 -180q26 -92 105 -189q76 -94 189 -142q112 -48 225 -48q111 0 211 42q99 41 175 119q75 76 117 180t42 218t-42 218t-117 180q-75 77 -175 120q-99 43 -211 43q-111 0 -212 -43q-100 -43 -176 -120q-75 -76 -117 -180t-42 -218zM755 1522l164 286h182l-209 -286 h-137z" />
<glyph unicode="&#xd4;" d="M113 686q0 144 54 276t151 229q95 95 229 152q132 56 276 56q143 0 275 -56t228 -152q99 -99 152 -229q54 -132 54 -276q0 -146 -54 -276t-152 -230q-96 -97 -228 -152q-133 -55 -275 -55q-143 0 -276 55q-134 55 -229 152q-96 98 -151 230q-54 130 -54 276zM276 686 q0 -82 28 -180q26 -92 105 -189q76 -94 189 -142q112 -48 225 -48q111 0 211 42q99 41 175 119q75 76 117 180t42 218t-42 218t-117 180q-75 77 -175 120q-99 43 -211 43q-111 0 -212 -43q-100 -43 -176 -120q-75 -76 -117 -180t-42 -218zM510 1522l238 290h149l240 -290 h-160l-154 190l-155 -190h-158z" />
<glyph unicode="&#xd5;" d="M113 686q0 144 54 276t151 229q95 95 229 152q132 56 276 56q143 0 275 -56t228 -152q99 -99 152 -229q54 -132 54 -276q0 -146 -54 -276t-152 -230q-96 -97 -228 -152q-133 -55 -275 -55q-143 0 -276 55q-134 55 -229 152q-96 98 -151 230q-54 130 -54 276zM276 686 q0 -82 28 -180q26 -92 105 -189q76 -94 189 -142q112 -48 225 -48q111 0 211 42q99 41 175 119q75 76 117 180t42 218t-42 218t-117 180q-75 77 -175 120q-99 43 -211 43q-111 0 -212 -43q-100 -43 -176 -120q-75 -76 -117 -180t-42 -218zM516 1528q0 104 52 156 q53 53 126 53q66 0 128 -43t86 -49q28 -7 36 -7q34 0 55 27t21 70h110q0 -60 -19 -108q-20 -51 -63 -78q-44 -27 -96 -27q-66 0 -128 43t-86 49t-36 6q-34 0 -55 -26q-20 -24 -20 -66h-111z" />
<glyph unicode="&#xd6;" d="M113 686q0 144 54 276t151 229q95 95 229 152q132 56 276 56q143 0 275 -56t228 -152q99 -99 152 -229q54 -132 54 -276q0 -146 -54 -276t-152 -230q-96 -97 -228 -152q-133 -55 -275 -55q-143 0 -276 55q-134 55 -229 152q-96 98 -151 230q-54 130 -54 276zM276 686 q0 -82 28 -180q26 -92 105 -189q76 -94 189 -142q112 -48 225 -48q111 0 211 42q99 41 175 119q75 76 117 180t42 218t-42 218t-117 180q-75 77 -175 120q-99 43 -211 43q-111 0 -212 -43q-100 -43 -176 -120q-75 -76 -117 -180t-42 -218zM513 1626q0 40 31 73q30 32 76 32 q44 0 76 -32t32 -73q0 -44 -32 -74t-76 -30q-46 0 -76 30q-31 31 -31 74zM919 1626q0 42 30 73q30 32 76 32q45 0 77 -32t32 -73q0 -44 -32 -74t-77 -30q-46 0 -76 30t-30 74z" />
<glyph unicode="&#xd7;" horiz-adv-x="1038" d="M129 336l289 289l-289 288l100 103l291 -289l289 289l100 -103l-288 -288l288 -289l-100 -100l-289 288l-291 -288z" />
<glyph unicode="&#xd8;" d="M113 686q0 144 54 276t151 229q95 95 229 152q132 56 276 56q129 0 249 -45q121 -45 212 -123l123 123l94 -94l-125 -125q75 -92 115 -207q41 -118 41 -242q0 -146 -54 -276t-152 -230q-96 -97 -228 -152q-133 -55 -275 -55q-123 0 -242 42q-117 41 -208 116l-133 -133 l-95 94l134 133q-79 92 -122 212q-44 121 -44 249zM276 686q0 -195 115 -348l783 782q-69 57 -162 93q-89 34 -189 34q-111 0 -212 -43q-100 -43 -176 -120q-75 -76 -117 -180t-42 -218zM485 244q69 -56 157 -86q90 -31 181 -31q111 0 211 42q99 41 175 119q75 76 117 180 t42 218q0 192 -104 336z" />
<glyph unicode="&#xd9;" horiz-adv-x="1476" d="M164 600v772h162v-772q0 -206 112 -338.5t303 -132.5t300.5 133t109.5 338v772h162v-772q0 -214 -90.5 -364.5t-249.5 -217.5q-107 -45 -232 -45q-203 0 -340 102t-196 271q-41 118 -41 254zM955 1808h183l161 -286h-135z" />
<glyph unicode="&#xda;" horiz-adv-x="1476" d="M164 600v772h162v-772q0 -206 112 -338.5t303 -132.5t300.5 133t109.5 338v772h162v-772q0 -214 -90.5 -364.5t-249.5 -217.5q-107 -45 -232 -45q-203 0 -340 102t-196 271q-41 118 -41 254zM1163 1522l164 286h182l-209 -286h-137z" />
<glyph unicode="&#xdb;" horiz-adv-x="1476" d="M164 600v772h162v-772q0 -206 112 -338.5t303 -132.5t300.5 133t109.5 338v772h162v-772q0 -214 -90.5 -364.5t-249.5 -217.5q-107 -45 -232 -45q-203 0 -340 102t-196 271q-41 118 -41 254zM919 1522l237 290h150l239 -290h-160l-153 190l-156 -190h-157z" />
<glyph unicode="&#xdc;" horiz-adv-x="1476" d="M164 600v772h162v-772q0 -213 114 -342t301 -129q112 0 211 57t149 170q50 114 50 244v772h162v-772q0 -136 -41 -254t-117 -200q-78 -84 -182 -128q-107 -45 -232 -45q-126 0 -234 45q-106 44 -184 128t-118 200q-41 118 -41 254zM428 1651q0 39 31 72q30 32 76 32 q44 0 76 -32t32 -72q0 -44 -32 -74q-33 -31 -76 -31q-45 0 -76 31t-31 74zM834 1651q0 41 30 72q30 32 76 32q45 0 77 -32t32 -72q0 -44 -32 -74q-33 -31 -77 -31q-45 0 -76 31q-30 30 -30 74z" />
<glyph unicode="&#xdd;" horiz-adv-x="1374" d="M37 1372h180l467 -731l467 731h186l-571 -891v-481h-162v479zM618 1522l164 286h183l-209 -286h-138z" />
<glyph unicode="&#xde;" horiz-adv-x="1286" d="M180 0v1372h162v-248h395q107 0 194 -31q88 -31 152 -92q65 -61 98 -140q33 -77 33 -175t-33 -175q-34 -79 -98 -139q-63 -58 -152 -90q-90 -32 -194 -32h-395v-250h-162zM342 395h387q147 0 236 82q90 83 90 209t-90 209q-89 82 -236 82h-387v-582z" />
<glyph unicode="&#xdf;" horiz-adv-x="1343" d="M180 0v979q0 83 25 178q24 92 93 179t176 130t220 43q127 0 239 -50t169 -144q57 -95 57 -199q0 -114 -57 -203q-56 -87 -158 -125q90 -21 161 -70t109 -133q37 -81 37 -177q0 -110 -52 -211q-53 -103 -159 -158t-231 -55q-85 0 -170 17q-93 19 -162 46l29 131 q57 -25 143 -44q75 -17 150 -17q144 0 230 85q87 86 87 206q0 144 -108 223q-109 80 -291 80h-96v131h75q143 0 228 70q86 71 86 186q0 122 -87 198q-86 76 -229 76q-161 0 -259 -104q-99 -105 -99 -279v-989h-156z" />
<glyph unicode="&#xe0;" horiz-adv-x="1116" d="M88 283q0 141 107 228t299 87h340v47q0 57 -25 118q-24 58 -86 96t-148 38q-113 0 -190 -54q-53 -37 -66 -54q-19 -25 -26 -62h-150q24 136 143 222q118 85 281 85q190 0 304 -99t114 -280v-655h-151v154q-60 -81 -159 -131q-98 -50 -220 -50q-163 0 -266 86 q-101 85 -101 224zM238 285q0 -37 21 -80t81 -73t137 -30q69 0 154 31q81 30 142 110q61 81 61 179v53h-342q-119 0 -187 -53q-67 -52 -67 -137zM291 1444h182l162 -287h-135z" />
<glyph unicode="&#xe1;" horiz-adv-x="1116" d="M88 283q0 141 107 228t299 87h340v47q0 57 -25 118q-24 58 -86 96t-148 38q-113 0 -190 -54q-53 -37 -66 -54q-19 -25 -26 -62h-150q24 136 143 222q118 85 281 85q190 0 304 -99t114 -280v-655h-151v154q-60 -81 -159 -131q-98 -50 -220 -50q-163 0 -266 86 q-101 85 -101 224zM238 285q0 -37 21 -80t81 -73t137 -30q69 0 154 31q81 30 142 110q61 81 61 179v53h-342q-119 0 -187 -53q-67 -52 -67 -137zM499 1157l164 287h182l-209 -287h-137z" />
<glyph unicode="&#xe2;" horiz-adv-x="1116" d="M88 283q0 141 107 228t299 87h340v47q0 57 -25 118q-24 58 -86 96t-148 38q-113 0 -190 -54q-53 -37 -66 -54q-19 -25 -26 -62h-150q24 136 143 222q118 85 281 85q190 0 304 -99t114 -280v-655h-151v154q-60 -81 -159 -131q-98 -50 -220 -50q-163 0 -266 86 q-101 85 -101 224zM238 285q0 -37 21 -80t81 -73t137 -30q69 0 154 31q81 30 142 110q61 81 61 179v53h-342q-119 0 -187 -53q-67 -52 -67 -137zM254 1157l238 291h149l240 -291h-160l-154 191l-155 -191h-158z" />
<glyph unicode="&#xe3;" horiz-adv-x="1116" d="M88 283q0 141 107 228t299 87h340v47q0 57 -25 118q-24 58 -86 96t-148 38q-113 0 -190 -54q-53 -37 -66 -54q-19 -25 -26 -62h-150q24 136 143 222q118 85 281 85q190 0 304 -99t114 -280v-655h-151v154q-60 -81 -159 -131q-98 -50 -220 -50q-163 0 -266 86 q-101 85 -101 224zM238 285q0 -37 21 -80t81 -73t137 -30q69 0 154 31q81 30 142 110q61 81 61 179v53h-342q-119 0 -187 -53q-67 -52 -67 -137zM260 1163q0 105 52 157t126 52q66 0 128 -43t86 -49t36 -6q35 0 55 26q21 27 21 70h110q0 -59 -19 -107q-20 -51 -63 -78 q-45 -28 -96 -28q-66 0 -128 43t-86 49t-36 6q-34 0 -55 -25q-20 -24 -20 -67h-111z" />
<glyph unicode="&#xe4;" horiz-adv-x="1116" d="M88 283q0 141 107 228t299 87h340v47q0 57 -25 118q-24 58 -86 96t-148 38q-113 0 -190 -54q-53 -37 -66 -54q-19 -25 -26 -62h-150q24 136 143 222q118 85 281 85q190 0 304 -99t114 -280v-655h-151v154q-60 -81 -159 -131q-98 -50 -220 -50q-163 0 -266 86 q-101 85 -101 224zM238 285q0 -37 21 -80t81 -73t137 -30q69 0 154 31q81 30 142 110q61 81 61 179v53h-342q-119 0 -187 -53q-67 -52 -67 -137zM257 1262q0 39 31 72q30 32 76 32q44 0 76 -32t32 -72q0 -44 -32 -74q-33 -31 -76 -31q-45 0 -76 31t-31 74zM663 1262 q0 40 30 72t76 32q45 0 77 -32t32 -72q0 -44 -32 -74q-33 -31 -77 -31q-45 0 -76 31q-30 30 -30 74z" />
<glyph unicode="&#xe5;" horiz-adv-x="1116" d="M88 283q0 141 107 228t299 87h340v47q0 57 -25 118q-24 58 -86 96t-148 38q-113 0 -190 -54q-53 -37 -66 -54q-19 -25 -26 -62h-150q24 136 143 222q118 85 281 85q190 0 304 -99t114 -280v-655h-151v154q-60 -81 -159 -131q-98 -50 -220 -50q-163 0 -266 86 q-101 85 -101 224zM238 285q0 -37 21 -80t81 -73t137 -30q69 0 154 31q81 30 142 110q61 81 61 179v53h-342q-119 0 -187 -53q-67 -52 -67 -137zM355 1364q0 39 21 87t74 83t116 35q42 0 91 -21q51 -22 86 -71q36 -51 36 -113t-36 -114q-34 -50 -86 -72q-49 -21 -91 -21 q-40 0 -90 21t-85 72q-36 52 -36 114zM452 1364q0 -46 33 -78q35 -33 81 -33t81 33q34 33 34 78t-34 78q-35 33 -81 33t-81 -33q-33 -32 -33 -78z" />
<glyph unicode="&#xe6;" horiz-adv-x="1898" d="M88 279q0 137 105 215q104 77 286 77h359v84q0 82 -43 141q-44 61 -106 83t-118 22t-119 -18q-44 -13 -108 -69q-20 -18 -36 -44t-17 -45h-148q6 49 30 102q25 55 81 105q58 52 143 77q84 25 176 25t169 -29q79 -30 126 -77t68 -90q67 94 169 145t222 51q75 0 156 -25 t163 -98q79 -71 122 -180t44 -221v-55h-829q15 -160 110 -252t240 -92q56 0 113 20q58 20 116 69q57 48 87 128h147q-40 -130 -93 -190q-65 -73 -160 -118q-99 -47 -212 -47q-143 0 -254 66t-174 180q-56 -110 -173 -178q-116 -68 -261 -68q-182 0 -282 86q-99 85 -99 220z M238 285q0 -80 66 -131q67 -52 181 -52q50 0 110 17q62 18 112 56q54 42 92 106q39 66 39 153v21h-359q-113 0 -177 -46t-64 -124zM981 571h672q-17 151 -106 241q-89 89 -214 89q-84 0 -165 -39t-129 -118t-58 -173z" />
<glyph unicode="&#xe7;" horiz-adv-x="1179" d="M88 504q0 86 24 164q24 79 74 152q51 74 137 129q89 56 163 70q80 15 128 15q86 0 179 -29q98 -30 182 -112q76 -74 119 -219h-156q-16 53 -42.5 86t-75.5 67q-93 64 -206 64q-96 0 -186 -48q-89 -47 -139 -142q-49 -92 -49 -197q0 -66 19 -130q19 -66 66 -123t119 -94 q74 -38 170 -38q72 0 135 22q62 22 118 73q30 27 46 50t29 62l150 2q-47 -175 -175 -263q-134 -92 -303 -92q-103 0 -200 38q-95 37 -170 109t-115 169q-41 100 -41 215zM347 -363l207 348h121l-158 -348h-170z" />
<glyph unicode="&#xe8;" horiz-adv-x="1193" d="M88 502q0 83 28 178q27 92 102 180q74 88 182 131q107 43 210 43q102 0 190 -36q89 -36 156 -103q68 -68 107 -162q38 -93 43 -203v-57h-866q5 -66 26 -125q23 -64 69 -116q47 -53 115 -87t150 -34q116 0 204 52q37 22 54 34t38.5 37t37.5 61h149q-61 -158 -185 -239 q-127 -83 -298 -83q-97 0 -191 38q-92 37 -166 108t-114 169q-41 100 -41 214zM246 590h702q-12 91 -60 164q-48 74 -124 108q-78 35 -154 35q-58 0 -137 -27t-145 -100q-65 -73 -82 -180zM334 1444h182l162 -287h-135z" />
<glyph unicode="&#xe9;" horiz-adv-x="1193" d="M88 502q0 83 28 178q27 92 102 180q74 88 182 131q107 43 210 43q102 0 190 -36q89 -36 156 -103q68 -68 107 -162q38 -93 43 -203v-57h-866q5 -66 26 -125q23 -64 69 -116q47 -53 115 -87t150 -34q116 0 204 52q37 22 54 34t38.5 37t37.5 61h149q-61 -158 -185 -239 q-127 -83 -298 -83q-97 0 -191 38q-92 37 -166 108t-114 169q-41 100 -41 214zM246 590h702q-12 91 -60 164q-48 74 -124 108q-78 35 -154 35q-58 0 -137 -27t-145 -100q-65 -73 -82 -180zM542 1157l164 287h182l-209 -287h-137z" />
<glyph unicode="&#xea;" horiz-adv-x="1193" d="M88 502q0 83 28 178q27 92 102 180q74 88 182 131q107 43 210 43q102 0 190 -36q89 -36 156 -103q68 -68 107 -162q38 -93 43 -203v-57h-866q5 -66 26 -125q23 -64 69 -116q47 -53 115 -87t150 -34q116 0 204 52q37 22 54 34t38.5 37t37.5 61h149q-61 -158 -185 -239 q-127 -83 -298 -83q-97 0 -191 38q-92 37 -166 108t-114 169q-41 100 -41 214zM246 590h702q-12 91 -60 164q-48 74 -124 108q-78 35 -154 35q-58 0 -137 -27t-145 -100q-65 -73 -82 -180zM297 1157l238 291h149l240 -291h-160l-154 191l-155 -191h-158z" />
<glyph unicode="&#xeb;" horiz-adv-x="1193" d="M88 502q0 83 28 178q27 92 102 180q74 88 182 131q107 43 210 43q102 0 190 -36q89 -36 156 -103q68 -68 107 -162q38 -93 43 -203v-57h-866q5 -66 26 -125q23 -64 69 -116q47 -53 115 -87t150 -34q116 0 204 52q37 22 54 34t38.5 37t37.5 61h149q-61 -158 -185 -239 q-127 -83 -298 -83q-97 0 -191 38q-92 37 -166 108t-114 169q-41 100 -41 214zM246 590h702q-12 91 -60 164q-48 74 -124 108q-78 35 -154 35q-58 0 -137 -27t-145 -100q-65 -73 -82 -180zM300 1262q0 39 31 72q30 32 76 32q44 0 76 -32t32 -72q0 -44 -32 -74 q-33 -31 -76 -31q-45 0 -76 31t-31 74zM706 1262q0 40 30 72t76 32q45 0 77 -32t32 -72q0 -44 -32 -74q-33 -31 -77 -31q-45 0 -76 31q-30 30 -30 74z" />
<glyph unicode="&#xec;" horiz-adv-x="571" d="M9 1442h182l162 -287h-135zM207 0v1010h158v-1010h-158z" />
<glyph unicode="&#xed;" horiz-adv-x="571" d="M207 0v1010h158v-1010h-158zM217 1155l164 287h182l-209 -287h-137z" />
<glyph unicode="&#xee;" horiz-adv-x="571" d="M-28 1155l238 291h149l240 -291h-160l-153 191l-156 -191h-158zM207 0v1010h158v-1010h-158z" />
<glyph unicode="&#xef;" horiz-adv-x="571" d="M-25 1260q0 39 31 72q30 32 76 32q45 0 77 -32q31 -31 31 -72q0 -44 -31 -74q-33 -31 -77 -31q-45 0 -76 31t-31 74zM207 0v1010h158v-1010h-158zM381 1260q0 39 31 72q30 32 75 32t77 -32t32 -72q0 -44 -32 -74q-33 -31 -77 -31t-75 31t-31 74z" />
<glyph unicode="&#xf0;" horiz-adv-x="1243" d="M88 504q0 116 40 214q41 100 111 170q71 71 163 108q94 38 198 38q63 0 132 -21q65 -20 118 -55q-89 137 -221 250l-275 -121l-47 111l209 94q-137 89 -301 152v31h256q94 -45 193 -117l219 98l49 -113l-162 -71q166 -151 277 -354q110 -201 110 -406q0 -65 -14 -132 q-16 -76 -53 -142q-41 -72 -105 -132q-65 -60 -161 -97q-94 -36 -195 -36q-106 0 -206 38q-98 37 -174 110q-75 72 -118 170t-43 213zM240 504q0 -67 20 -130q22 -68 77 -132q58 -67 136 -98t156 -31q109 0 192 53q80 51 131 145q49 91 49 201q0 80 -30 152q-29 70 -83 122 t-121 80q-70 29 -142 29q-57 0 -122 -18q-61 -17 -130 -72q-65 -52 -100 -135q-33 -79 -33 -166z" />
<glyph unicode="&#xf1;" horiz-adv-x="1277" d="M180 0v1010h156v-168q63 93 159 142q98 50 222 50q69 0 136 -20q70 -21 130 -72q58 -49 99 -136q40 -84 40 -202v-604h-155v575q0 142 -78 229t-203 87q-160 0 -255 -107t-95 -299v-485h-156zM344 1163q0 105 52 157t126 52q66 0 128 -43t86 -49t36 -6q35 0 55 26 q21 27 21 70h110q0 -59 -19 -107q-20 -51 -63 -78q-45 -28 -96 -28q-66 0 -128 43t-86 49t-36 6q-34 0 -55 -25q-20 -24 -20 -67h-111z" />
<glyph unicode="&#xf2;" horiz-adv-x="1245" d="M88 506q0 81 28 174q27 90 102 177q76 88 185 131q112 44 222 44q107 0 206 -39q101 -40 173 -109q74 -70 114 -168q41 -99 41 -210t-41 -211q-40 -97 -114 -170q-73 -72 -173 -111q-99 -39 -206 -39q-110 0 -209 39q-98 39 -172 111q-76 74 -115 170q-41 100 -41 211z M240 506q0 -106 51 -201q50 -93 144 -143q92 -49 190 -49q77 0 145 28q72 30 123 81q53 53 83 126t30 158t-30 157q-30 71 -83 123q-52 51 -123 80q-70 29 -145 29q-73 0 -139 -25q-61 -23 -112 -65q-49 -40 -92 -118q-42 -77 -42 -181zM348 1442h182l162 -287h-135z" />
<glyph unicode="&#xf3;" horiz-adv-x="1245" d="M88 506q0 81 28 174q27 90 102 177q76 88 185 131q112 44 222 44q107 0 206 -39q101 -40 173 -109q74 -70 114 -168q41 -99 41 -210t-41 -211q-40 -97 -114 -170q-73 -72 -173 -111q-99 -39 -206 -39q-110 0 -209 39q-98 39 -172 111q-76 74 -115 170q-41 100 -41 211z M240 506q0 -106 51 -201q50 -93 144 -143q92 -49 190 -49q77 0 145 28q72 30 123 81q53 53 83 126t30 158t-30 157q-30 71 -83 123q-52 51 -123 80q-70 29 -145 29q-73 0 -139 -25q-61 -23 -112 -65q-49 -40 -92 -118q-42 -77 -42 -181zM556 1155l164 287h182l-209 -287 h-137z" />
<glyph unicode="&#xf4;" horiz-adv-x="1245" d="M88 506q0 81 28 174q27 90 102 177q76 88 185 131q112 44 222 44q107 0 206 -39q101 -40 173 -109q74 -70 114 -168q41 -99 41 -210t-41 -211q-40 -97 -114 -170q-73 -72 -173 -111q-99 -39 -206 -39q-110 0 -209 39q-98 39 -172 111q-76 74 -115 170q-41 100 -41 211z M240 506q0 -106 51 -201q50 -93 144 -143q92 -49 190 -49q77 0 145 28q72 30 123 81q53 53 83 126t30 158t-30 157q-30 71 -83 123q-52 51 -123 80q-70 29 -145 29q-73 0 -139 -25q-61 -23 -112 -65q-49 -40 -92 -118q-42 -77 -42 -181zM311 1155l238 291h149l240 -291h-160 l-153 191l-156 -191h-158z" />
<glyph unicode="&#xf5;" horiz-adv-x="1245" d="M88 506q0 81 28 174q27 90 102 177q76 88 185 131q112 44 222 44q107 0 206 -39q101 -40 173 -109q74 -70 114 -168q41 -99 41 -210t-41 -211q-40 -97 -114 -170q-73 -72 -173 -111q-99 -39 -206 -39q-110 0 -209 39q-98 39 -172 111q-76 74 -115 170q-41 100 -41 211z M240 506q0 -106 51 -201q50 -93 144 -143q92 -49 190 -49q77 0 145 28q72 30 123 81q53 53 83 126t30 158t-30 157q-30 71 -83 123q-52 51 -123 80q-70 29 -145 29q-73 0 -139 -25q-61 -23 -112 -65q-49 -40 -92 -118q-42 -77 -42 -181zM317 1161q0 104 53 157q52 52 126 52 q66 0 128 -43t86 -49t35 -6q36 0 56 26t20 70h111q0 -56 -20 -107t-63 -78q-45 -28 -95 -28q-66 0 -128 43t-86 49t-36 6q-34 0 -55 -25q-21 -26 -21 -67h-111z" />
<glyph unicode="&#xf6;" horiz-adv-x="1245" d="M88 506q0 81 28 174q27 90 102 177q76 88 185 131q112 44 222 44q107 0 206 -39q101 -40 173 -109q74 -70 114 -168q41 -99 41 -210t-41 -211q-40 -97 -114 -170q-73 -72 -173 -111q-99 -39 -206 -39q-110 0 -209 39q-98 39 -172 111q-76 74 -115 170q-41 100 -41 211z M240 506q0 -106 51 -201q50 -93 144 -143q92 -49 190 -49q77 0 145 28q72 30 123 81q53 53 83 126t30 158t-30 157q-30 71 -83 123q-52 51 -123 80q-70 29 -145 29q-73 0 -139 -25q-61 -23 -112 -65q-49 -40 -92 -118q-42 -77 -42 -181zM314 1260q0 39 31 72q30 32 76 32 q45 0 77 -32q31 -31 31 -72q0 -44 -31 -74q-33 -31 -77 -31q-45 0 -76 31t-31 74zM720 1260q0 39 31 72q30 32 75 32t77 -32t32 -72q0 -44 -32 -74q-33 -31 -77 -31t-75 31t-31 74z" />
<glyph unicode="&#xf7;" horiz-adv-x="1187" d="M143 555v139h901v-139h-901zM483 258q0 41 31 72q30 30 76 30t76 -30t30 -72q0 -43 -30 -73q-29 -29 -76 -29t-76 29q-31 31 -31 73zM483 993q0 41 31 72t76 31t76 -31q30 -30 30 -72t-30 -72t-76 -30t-76 30q-31 31 -31 72z" />
<glyph unicode="&#xf8;" horiz-adv-x="1241" d="M88 506q0 81 28 174q27 90 102 177q76 88 185 131q112 44 222 44q96 0 180 -28q83 -28 153 -82l113 112l80 -80l-111 -110q56 -66 87 -154q32 -90 32 -184q0 -111 -41 -211q-40 -97 -114 -170q-73 -72 -173 -111q-99 -39 -206 -39q-95 0 -183 30q-86 29 -157 83 l-113 -113l-80 80l113 113q-117 144 -117 338zM240 506q0 -64 19 -125q20 -63 50 -109l547 547q-45 33 -110 55q-63 21 -121 21q-73 0 -139 -25q-61 -23 -112 -65q-49 -40 -92 -118q-42 -77 -42 -181zM389 193q47 -37 111 -59q63 -21 125 -21q77 0 145 28q72 30 123 81 q53 53 83 126t30 158q0 59 -20 124q-18 60 -50 107z" />
<glyph unicode="&#xf9;" horiz-adv-x="1277" d="M156 406v604h157v-576q0 -141 77 -227t202 -86q160 0 255 105q95 106 95 298v486h158v-1008h-158v164q-62 -91 -160 -140q-102 -51 -221 -51q-65 0 -136 21q-70 21 -130 72q-58 49 -99 136q-40 84 -40 202zM351 1442h183l161 -287h-135z" />
<glyph unicode="&#xfa;" horiz-adv-x="1277" d="M156 406v604h157v-576q0 -141 77 -227t202 -86q160 0 255 105q95 106 95 298v486h158v-1008h-158v164q-62 -91 -160 -140q-102 -51 -221 -51q-65 0 -136 21q-70 21 -130 72q-58 49 -99 136q-40 84 -40 202zM559 1155l164 287h182l-209 -287h-137z" />
<glyph unicode="&#xfb;" horiz-adv-x="1277" d="M156 406v604h157v-576q0 -141 77 -227t202 -86q160 0 255 105q95 106 95 298v486h158v-1008h-158v164q-62 -91 -160 -140q-102 -51 -221 -51q-65 0 -136 21q-70 21 -130 72q-58 49 -99 136q-40 84 -40 202zM314 1155l238 291h149l240 -291h-160l-153 191l-156 -191h-158z " />
<glyph unicode="&#xfc;" horiz-adv-x="1277" d="M156 406v604h157v-576q0 -141 77 -227t202 -86q160 0 255 105q95 106 95 298v486h158v-1008h-158v164q-62 -91 -160 -140q-102 -51 -221 -51q-65 0 -136 21q-70 21 -130 72q-58 49 -99 136q-40 84 -40 202zM317 1260q0 39 31 72q30 32 76 32q45 0 77 -32q31 -31 31 -72 q0 -44 -31 -74q-33 -31 -77 -31q-45 0 -76 31t-31 74zM723 1260q0 39 31 72q30 32 75 32t77 -32t32 -72q0 -44 -32 -74q-33 -31 -77 -31t-75 31t-31 74z" />
<glyph unicode="&#xfd;" horiz-adv-x="1153" d="M37 1010h176l360 -807l369 807h174l-618 -1358h-174l165 362zM508 1155l164 287h182l-209 -287h-137z" />
<glyph unicode="&#xfe;" horiz-adv-x="1329" d="M180 -348v1823h156v-627q66 87 173 137q104 49 228 49q98 0 191 -38t163 -108q68 -68 110 -170q40 -98 40 -214t-40 -214q-42 -102 -110 -170q-71 -71 -163 -109q-93 -38 -191 -38q-122 0 -228 50q-107 50 -173 137v-508h-156zM336 504q0 -107 52 -201q53 -95 143 -142 q91 -48 182 -48q160 0 268 108q109 109 109 283q0 63 -20 134t-65 126q-48 58 -121 95q-76 38 -171 38q-67 0 -139 -28q-69 -27 -121 -79q-54 -54 -85 -126q-32 -75 -32 -160z" />
<glyph unicode="&#xff;" horiz-adv-x="1153" d="M37 1010h176l360 -807l369 807h174l-618 -1358h-174l165 362zM266 1260q0 39 31 72q30 32 76 32q45 0 77 -32q31 -31 31 -72q0 -44 -31 -74q-33 -31 -77 -31q-45 0 -76 31t-31 74zM672 1260q0 40 30 72t76 32q45 0 77 -32t32 -72q0 -44 -32 -74q-33 -31 -77 -31 q-45 0 -76 31q-30 30 -30 74z" />
<glyph unicode="&#x152;" horiz-adv-x="2142" d="M113 686q0 147 56 272q58 129 162 220q106 92 257 143q152 51 334 51h1095v-145h-837v-465h778v-146h-778v-469h839v-147h-1097q-182 0 -334 51q-150 50 -257 144q-105 91 -162 219q-56 125 -56 272zM276 686q0 -118 43 -217q43 -100 126 -172q82 -71 205 -111 q122 -39 272 -39h96v1080h-96q-152 0 -272 -40q-124 -41 -205 -112q-83 -72 -126 -172q-43 -99 -43 -217z" />
<glyph unicode="&#x153;" horiz-adv-x="2113" d="M88 506q0 81 28 174q27 90 102 177q76 88 185 131q112 44 222 44q102 0 202 -38q97 -37 161 -96q59 -55 95 -112q69 117 188 182q120 66 259 66q100 0 189 -36q91 -37 157 -103q67 -67 106 -162q38 -93 43 -203v-57h-866q5 -62 27 -125q23 -66 68 -116q47 -53 115 -87 t151 -34q115 0 203 52q91 54 141 165l139 -33q-61 -158 -185 -239q-127 -83 -298 -83q-98 0 -192 38q-92 37 -153 98q-64 64 -94 112q-34 -55 -95 -111q-65 -61 -160 -97q-99 -38 -201 -38q-110 0 -209 39q-98 39 -172 111q-76 74 -115 170q-41 100 -41 211zM240 506 q0 -106 51 -201q50 -93 144 -143q92 -49 190 -49q77 0 145 28q72 30 123 81q53 53 83 126t30 158t-30 157q-30 71 -83 123q-52 51 -123 80q-70 29 -145 29q-73 0 -139 -25q-61 -23 -112 -65q-49 -40 -92 -118q-42 -77 -42 -181zM1165 590h703q-12 89 -61 164 q-48 74 -124 108q-78 35 -153 35q-58 0 -137 -27q-81 -27 -146 -100t-82 -180z" />
<glyph unicode="&#x178;" horiz-adv-x="1374" d="M37 1372h180l467 -731l467 731h186l-571 -891v-481h-162v479zM377 1626q0 40 31 73q30 32 75 32t77 -32t32 -73q0 -44 -32 -74t-77 -30t-75 30q-31 31 -31 74zM782 1626q0 40 31 73q30 32 76 32q45 0 77 -32q31 -31 31 -73q0 -44 -31 -74q-32 -30 -77 -30q-46 0 -76 30 q-31 31 -31 74z" />
<glyph unicode="&#x2c6;" horiz-adv-x="1228" d="M303 1145l238 291h149l240 -291h-160l-154 190l-155 -190h-158z" />
<glyph unicode="&#x2dc;" horiz-adv-x="1228" d="M313 1214q0 104 53 157q52 52 126 52q66 0 128 -43t86 -49t35 -6q35 0 56 27q20 26 20 69h111q0 -56 -20 -107t-63 -78q-45 -28 -95 -28q-66 0 -128 43t-86 49q-28 7 -36 7q-35 0 -56 -26q-20 -24 -20 -67h-111z" />
<glyph unicode="&#x2000;" horiz-adv-x="906" />
<glyph unicode="&#x2001;" horiz-adv-x="1812" />
<glyph unicode="&#x2002;" horiz-adv-x="906" />
<glyph unicode="&#x2003;" horiz-adv-x="1812" />
<glyph unicode="&#x2004;" horiz-adv-x="604" />
<glyph unicode="&#x2005;" horiz-adv-x="453" />
<glyph unicode="&#x2006;" horiz-adv-x="302" />
<glyph unicode="&#x2007;" horiz-adv-x="302" />
<glyph unicode="&#x2008;" horiz-adv-x="226" />
<glyph unicode="&#x2009;" horiz-adv-x="362" />
<glyph unicode="&#x200a;" horiz-adv-x="100" />
<glyph unicode="&#x2010;" horiz-adv-x="907" d="M123 455v137h661v-137h-661z" />
<glyph unicode="&#x2011;" horiz-adv-x="907" d="M123 455v137h661v-137h-661z" />
<glyph unicode="&#x2012;" horiz-adv-x="907" d="M123 455v137h661v-137h-661z" />
<glyph unicode="&#x2013;" horiz-adv-x="1269" d="M123 461v123h1024v-123h-1024z" />
<glyph unicode="&#x2014;" horiz-adv-x="2129" d="M123 461v123h1884v-123h-1884z" />
<glyph unicode="&#x2018;" horiz-adv-x="512" d="M96 834v6l197 532h123l-135 -538h-185z" />
<glyph unicode="&#x2019;" horiz-adv-x="512" d="M98 834l135 538h185v-4l-199 -534h-121z" />
<glyph unicode="&#x201a;" horiz-adv-x="512" d="M98 -270l135 538h185v-4l-199 -534h-121z" />
<glyph unicode="&#x201c;" horiz-adv-x="849" d="M96 834v6l197 532h123l-135 -538h-185zM434 834v6l197 532h123l-136 -538h-184z" />
<glyph unicode="&#x201d;" horiz-adv-x="849" d="M98 834l135 538h185v-4l-199 -534h-121zM436 834l135 538h185v-4l-199 -534h-121z" />
<glyph unicode="&#x201e;" horiz-adv-x="849" d="M98 -270l135 538h185v-4l-199 -534h-121zM436 -270l135 538h185v-4l-199 -534h-121z" />
<glyph unicode="&#x2022;" horiz-adv-x="815" d="M102 539q0 71 36 137q34 63 106 111q70 47 164 47q78 0 152 -40q75 -41 114 -112q39 -72 39 -143q0 -125 -87 -209t-218 -84q-132 0 -219 84t-87 209z" />
<glyph unicode="&#x2026;" horiz-adv-x="1318" d="M102 96q0 40 31 73q30 32 76 32t76 -32q30 -31 30 -73t-30 -72t-76 -30t-76 30q-31 31 -31 72zM553 96q0 40 31 73q30 32 75 32q46 0 76 -32q31 -33 31 -73q0 -41 -31 -72q-30 -30 -76 -30q-45 0 -75 30q-31 31 -31 72zM1004 96q0 42 30 73q30 32 76 32t76 -32 q31 -33 31 -73q0 -41 -31 -72q-30 -30 -76 -30t-76 30t-30 72z" />
<glyph unicode="&#x202f;" horiz-adv-x="362" />
<glyph unicode="&#x2039;" horiz-adv-x="512" d="M51 537l250 364h160l-250 -364l250 -365h-160z" />
<glyph unicode="&#x203a;" horiz-adv-x="512" d="M51 172l250 365l-250 364h160l250 -364l-250 -365h-160z" />
<glyph unicode="&#x205f;" horiz-adv-x="453" />
<glyph unicode="&#x20ac;" horiz-adv-x="1622" d="M180 471v119h221l-4 96l4 86h-221v119h236q47 234 194 371q148 137 357 137q200 0 346 -128q144 -126 194 -345l-161 -35q-37 169 -140 264q-101 94 -239 94q-141 0 -243 -96q-101 -95 -140 -262h524l-31 -119h-512l-4 -86l4 -96h465l-29 -119h-415q30 -119 90 -195 q57 -73 132 -112q71 -37 159 -37q137 0 238 91q102 92 147 263l157 -37q-51 -215 -196 -342t-346 -127q-102 0 -193 35q-88 34 -162 100q-70 62 -120 157q-50 93 -72 204h-240z" />
<glyph unicode="&#x2122;" horiz-adv-x="1331" d="M78 1290v82h475v-82h-191v-463h-98v463h-186zM637 827v545h104l195 -389l197 389h102v-545h-92v367l-176 -363h-62l-176 363v-367h-92z" />
<glyph unicode="&#x25fc;" horiz-adv-x="1013" d="M0 0v1014h1014v-1014h-1014z" />
</font>
</defs>
</svg>
